<?xml version="1.0" encoding="UTF-8"?>
<svg xmlns="http://www.w3.org/2000/svg" version="1.1" viewBox="0 0 787.88 1339.39">
  <!-- Generator: Adobe Illustrator 29.0.0, SVG Export Plug-In . SVG Version: 2.1.0 Build 186)  -->
  <defs>
    <style>
      .st0 {
        isolation: isolate;
        opacity: .85;
      }

      .st1, .st2, .st3 {
        fill: #fff;
      }

      .st1, .st4 {
        stroke-width: 10px;
      }

      .st1, .st4, .st5 {
        stroke: #000;
        stroke-miterlimit: 10;
      }

      .st2 {
        opacity: .48;
      }

      .st6 {
        opacity: .22;
      }

      .st4, .st5 {
        fill: none;
      }

      .st5 {
        stroke-width: 6px;
      }

      .st7 {
        display: none;
      }
    </style>
  </defs>
  <g id="_레이어_2" class="st7">
    <g class="st6">
      <polygon class="st0" points="217.55 322.46 137.42 360.49 165.33 411.3 207.29 411.3 234.66 383.94 229.77 327.93 217.55 322.46"/>
      <polygon class="st0" points="251.27 322.46 257.31 307.35 308.16 293.99 357.56 296.19 359.16 360.67 316.68 377.16 287.55 373.71 271.61 357.92 251.27 322.46"/>
      <polyline class="st5" points="357.56 304.6 357.56 296.19 308.16 293.99 257.31 307.35 253.7 316.39 243.3 313.85 229.21 313.85 222.19 324.54 217.55 322.46 137.42 360.49 141.77 368.41"/>
      <polygon class="st3" points="348.46 348.83 335.92 356.95 338.13 362.49 352.51 355.66 348.46 348.83"/>
      <polygon class="st3" points="213.04 380.57 197.91 403.08 211.19 401.23 224.84 380.57 213.04 380.57"/>
    </g>
  </g>
  <g id="_레이어_21" data-name="레이어_2">
    <polygon class="st2" points="269.12 272.5 249.67 287.22 244.22 304.99 244.14 327.73 256.33 352.28 284.64 365.63 327.8 361.21 345.57 334.31 349.4 296.47 339.26 285.16 320.89 272.82 290.7 270.29 269.12 272.5"/>
    <polygon class="st2" points="225.88 329.52 211.82 309.6 194.24 303.56 171.52 302.73 146.57 314.1 132.3 341.95 135.28 385.23 161.58 403.89 199.27 408.96 210.91 399.21 223.85 381.26 227.38 351.17 225.88 329.52"/>
    <polyline class="st4" points="249.45 321.63 228.61 329.26 220.61 333.37"/>
    <line class="st1" x1="135.95" y1="360.85" x2="126.36" y2="365.63"/>
    <line class="st1" x1="339.76" y1="290.45" x2="347.87" y2="286.4"/>
  </g>
</svg>