<?xml version="1.0" encoding="UTF-8"?>
<svg id="_레이어_2" xmlns="http://www.w3.org/2000/svg" xmlns:xlink="http://www.w3.org/1999/xlink" version="1.1" viewBox="0 0 787.88 1339.39">
  <!-- Generator: Adobe Illustrator 29.0.0, SVG Export Plug-In . SVG Version: 2.1.0 Build 186)  -->
  <defs>
    <style>
      .st0 {
        clip-path: url(#clippath);
      }
    </style>
    <clipPath id="clippath">
      <polygon points="126.63 245.74 120.3 224.51 79.65 190.11 74.56 174.47 124.37 174.47 160.65 175.69 182.07 155.32 216.08 150.24 259.08 150.24 304.82 106.81 323.98 93.55 333.62 109.58 335.32 161.18 333.62 203.73 327.03 223.83 316.24 211.98 280.61 205 185.27 220.27 130.68 270.86 122.59 264.27 126.63 245.74"/>
    </clipPath>
  </defs>
  <polygon points="152.28 341.31 152.28 341.31 169.56 398.18 168.75 431.8 163.69 454.22 163.34 544.72 142.86 542 152.28 465.13 156.14 444.12 159.39 418.1 152.28 384.36 152.28 341.31"/>
  <polygon points="126.63 245.74 120.3 224.51 79.65 190.11 74.56 174.47 124.37 174.47 160.65 175.69 182.07 155.32 216.08 150.24 259.08 150.24 304.82 106.81 323.98 93.55 333.62 109.58 335.32 161.18 333.62 203.73 327.03 223.83 316.24 211.98 280.61 205 185.27 220.27 130.68 270.86 122.59 264.27 126.63 245.74"/>
  <polygon points="344.1 285.78 374.53 366.21 366.71 421.32 373.61 448.94 359.32 440.66 365.9 366.2 347.65 338.51 344.1 285.78"/>
  <polygon points="385.41 448.94 380.81 461.35 368.4 464.78 357.09 460.26 351.8 448.94 356.41 436.95 368.4 432.61 380.1 437.25 385.41 448.94"/>
  <polygon points="169.91 543.61 165.3 556.02 152.89 559.45 141.58 554.93 136.29 543.61 140.9 531.62 152.89 527.28 164.59 531.92 169.91 543.61"/>
  <g>
    <polygon points="126.63 245.74 120.3 224.51 79.65 190.11 74.56 174.47 124.37 174.47 160.65 175.69 182.07 155.32 216.08 150.24 259.08 150.24 304.82 106.81 323.98 93.55 333.62 109.58 335.32 161.18 333.62 203.73 327.03 223.83 316.24 211.98 280.61 205 185.27 220.27 130.68 270.86 122.59 264.27 126.63 245.74"/>
    <g class="st0">
      <polygon points="118.1 250.3 126.63 245.74 156.21 221.47 178.08 201.92 196.64 194.96 261.59 182.2 300.37 186.34 321.91 196.72 333.62 203.73 344.1 223.46 271.87 242.01 145.86 278.43 109.15 282.11 118.1 250.3"/>
    </g>
  </g>
</svg>