<?xml version="1.0" encoding="UTF-8"?>
<svg id="_레이어_2" xmlns="http://www.w3.org/2000/svg" version="1.1" viewBox="0 0 787.88 1339.39">
  <!-- Generator: Adobe Illustrator 29.0.0, SVG Export Plug-In . SVG Version: 2.1.0 Build 186)  -->
  <defs>
    <style>
      .st0 {
        fill: #fff;
      }

      .st1 {
        fill: #e0b070;
      }
    </style>
  </defs>
  <polygon class="st1" points="346.87 327.93 314.27 322.46 235.33 333.4 232.42 358.2 256.29 362.75 293.81 354.79 347.86 362.75 347.65 338.51 346.87 327.93"/>
  <polygon class="st0" points="319.56 331.58 314 327.71 275.36 331.58 279.47 352.83 298.79 349.2 322.7 352.83 319.56 331.58"/>
  <circle class="st0" cx="250.95" cy="337.98" r="1.33"/>
  <circle class="st0" cx="260.82" cy="342.6" r="1.33"/>
  <circle class="st0" cx="267.67" cy="334.09" r="1.33"/>
  <circle class="st0" cx="269" cy="351.5" r="1.33"/>
  <circle class="st0" cx="259.48" cy="352.83" r="1.33"/>
  <circle class="st0" cx="328.15" cy="332.75" r="1.33"/>
  <circle class="st0" cx="330.81" cy="339.94" r="1.33"/>
  <circle class="st0" cx="328.15" cy="347.13" r="1.33"/>
  <circle class="st0" cx="335.89" cy="347.13" r="1.33"/>
  <circle class="st0" cx="335.89" cy="335.42" r="1.33"/>
</svg>