<?xml version="1.0" encoding="UTF-8"?>
<svg id="_레이어_1" xmlns="http://www.w3.org/2000/svg" xmlns:xlink="http://www.w3.org/1999/xlink" version="1.1" viewBox="0 0 787.88 1339.39">
  <!-- Generator: Adobe Illustrator 29.0.0, SVG Export Plug-In . SVG Version: 2.1.0 Build 186)  -->
  <defs>
    <style>
      .st0 {
        fill: none;
      }

      .st1, .st2 {
        fill: #ff00c3;
      }

      .st2 {
        opacity: .46;
      }

      .st3 {
        clip-path: url(#clippath);
      }
    </style>
    <clipPath id="clippath">
      <polygon class="st0" points="532.92 565.3 513.01 463.7 506.47 334.11 502.4 312.38 491.17 252.41 461.09 209.17 415.87 199.51 402.82 196.72 357.81 226.61 327.03 223.33 312.1 204.83 323.34 182.9 324.45 122.52 318.95 106.81 286.26 146.91 262.14 172.8 208.11 170.59 175.01 197.31 126.5 185.01 93.21 188.57 125.57 218.72 146.88 244.12 130.68 270.86 122.56 301.13 124.41 303.32 128.89 327.19 152.24 341.29 170.95 402 188.49 446.06 192.93 479.45 180.32 522.59 209.24 593.29 244.22 640.62 271.28 639.93 272.45 684.55 264.26 711.26 310.28 713.5 300.28 680.41 295.19 639.31 304.69 639.07 352.88 622.86 357.09 614.26 376.9 689.48 379.62 730.69 420.51 722.6 398.26 681.08 388.32 640.88 390.76 618.01 385.32 602.3 389.41 530.68 387.93 461.13 425.47 442.9 445.5 421.9 444.47 544.25 430.79 589.05 479.73 588.94 475.1 557.31 479.86 416.68 477.46 380.83 483.59 373.48 486.54 410.01 497.35 540.15 494 579.82 532.92 565.3"/>
    </clipPath>
  </defs>
  <g class="st3">
    <polygon class="st1" points="231.61 262.54 244.21 287.93 274.88 288.29 282.39 303.83 247.42 313.94 264.03 343.73 250.52 357.52 229.77 326.86 206 352.41 201.55 345.54 209.7 314.71 185.15 294.16 183.88 286.23 214.88 287.96 224.42 260.25 231.61 262.54"/>
    <polygon class="st1" points="482.62 201.05 481.03 218.19 495.2 228.16 494.95 236.35 475.52 235.45 475.24 254.74 465.39 256.33 459.61 238 441.02 242.04 439.07 237.09 452.95 223.6 444.35 206.28 447.11 203.21 463.57 210.07 475.95 197.32 482.62 201.05"/>
    <polygon class="st2" points="478.98 322.39 444.28 330.29 433.8 364.55 417.53 369.33 406.81 330.56 368.73 342.4 359.26 324.07 391.58 300.92 371.69 266.99 380.17 259.99 415.58 278.58 444.1 250.54 451.92 254.01 449.01 290.75 482.01 306.89 478.98 322.39"/>
  </g>
</svg>