<?xml version="1.0" encoding="UTF-8"?>
<svg id="_레이어_1" xmlns="http://www.w3.org/2000/svg" xmlns:xlink="http://www.w3.org/1999/xlink" version="1.1" viewBox="0 0 787.88 1339.39">
  <!-- Generator: Adobe Illustrator 29.0.0, SVG Export Plug-In . SVG Version: 2.1.0 Build 186)  -->
  <defs>
    <style>
      .st0 {
        fill: none;
      }

      .st1 {
        fill: url(#_무제_그라디언트_3);
      }

      .st2 {
        clip-path: url(#clippath-1);
      }

      .st3 {
        fill: url(#_무제_그라디언트_31);
      }

      .st4 {
        clip-path: url(#clippath);
      }
    </style>
    <clipPath id="clippath">
      <path class="st0" d="M300.28,680.41l10,33.09-46.02-2.24,8.19-26.71-1.17-44.62,23.91-.61,5.09,41.1ZM532.92,565.3l-19.91-101.6-6.54-129.59-4.07-21.73-11.23-59.97-30.08-43.24-45.22-9.66-13.05-2.79-45.01,29.89-30.78-3.28,10.21,12.65,8.87,15.18-2.91,27.27,4.45,60.08.95,107.74,28.84,54.68-1.81,75.43-18.54,37.9,19.81,75.22,2.72,41.21,40.89-8.09-22.25-41.52-9.94-40.2,2.44-22.87-5.44-15.71,4.09-71.62-1.48-69.55,37.54-18.23,20.03-21-1.03,122.35-13.68,44.8,48.94-.11-4.63-31.63,4.76-140.63-2.4-35.85,6.13-7.35,2.95,36.53,10.81,130.14-3.35,39.67,38.92-14.52Z"/>
    </clipPath>
    <linearGradient id="_무제_그라디언트_3" data-name="무제 그라디언트 3" x1="-173.65" y1="256.19" x2="597.71" y2="256.19" gradientTransform="translate(160.47 237.49)" gradientUnits="userSpaceOnUse">
      <stop offset=".33" stop-color="#fff" stop-opacity="0"/>
      <stop offset=".83" stop-color="#000"/>
    </linearGradient>
    <clipPath id="clippath-1">
      <polygon class="st0" points="175.01 197.31 126.5 185.01 93.21 188.57 125.57 218.72 146.88 244.12 130.68 270.86 122.56 301.13 149.81 333.4 170.95 402 188.49 446.06 192.93 479.45 180.32 522.59 209.24 593.29 244.22 640.62 304.69 639.07 352.88 622.86 375.63 576.36 377.44 500.93 348.6 446.25 347.65 338.51 343.2 278.43 346.11 251.16 337.24 235.98 312.1 204.83 323.34 182.9 324.45 122.52 318.95 106.81 286.26 146.91 262.14 172.8 208.11 170.59 175.01 197.31"/>
    </clipPath>
    <linearGradient id="_무제_그라디언트_31" data-name="무제 그라디언트 3" x1="253.62" y1="587.38" x2="204.09" y2="86.82" gradientTransform="matrix(1,0,0,1,0,0)" xlink:href="#_무제_그라디언트_3"/>
  </defs>
  <g class="st4">
    <rect class="st1" x="-13.18" y="115.18" width="771.36" height="757" transform="translate(487.75 1101.29) rotate(-153.7)"/>
  </g>
  <g id="_레이어_11">
    <g class="st2">
      <rect class="st3" x="-23" y="-45" width="503" height="757"/>
    </g>
  </g>
</svg>