<?xml version="1.0" encoding="UTF-8"?>
<svg id="_레이어_1" data-name="레이어_1" xmlns="http://www.w3.org/2000/svg" xmlns:xlink="http://www.w3.org/1999/xlink" version="1.1" viewBox="0 0 787.88 1339.39">
  <!-- Generator: Adobe Illustrator 29.0.0, SVG Export Plug-In . SVG Version: 2.1.0 Build 186)  -->
  <defs>
    <style>
      .st0 {
        fill: none;
      }

      .st1 {
        fill: #ff00c3;
      }

      .st2 {
        clip-path: url(#clippath);
      }
    </style>
    <clipPath id="clippath">
      <polygon class="st0" points="532.92 565.3 513.01 463.7 506.47 334.11 502.4 312.38 491.17 252.41 461.09 209.17 415.87 199.51 402.82 196.72 357.81 226.61 327.03 223.33 312.1 204.83 323.34 182.9 324.45 122.52 318.95 106.81 286.26 146.91 262.14 172.8 208.11 170.59 175.01 197.31 126.5 185.01 93.21 188.57 125.57 218.72 146.88 244.12 130.68 270.86 122.56 301.13 124.41 303.32 128.89 327.19 152.24 341.29 170.95 402 188.49 446.06 192.93 479.45 180.32 522.59 209.24 593.29 244.22 640.62 271.28 639.93 272.45 684.55 264.26 711.26 310.28 713.5 300.28 680.41 295.19 639.31 304.69 639.07 352.88 622.86 357.09 614.26 376.9 689.48 379.62 730.69 420.51 722.6 398.26 681.08 388.32 640.88 390.76 618.01 385.32 602.3 389.41 530.68 387.93 461.13 425.47 442.9 445.5 421.9 444.47 544.25 430.79 589.05 479.73 588.94 475.1 557.31 479.86 416.68 477.46 380.83 483.59 373.48 486.54 410.01 497.35 540.15 494 579.82 532.92 565.3"/>
    </clipPath>
  </defs>
  <g class="st2">
    <polygon class="st1" points="233.55 246.67 232.15 252.99 226.89 256.52 221.2 260.14 215.34 256.81 210.8 252.67 207.73 246.67 210.26 240.35 214.96 235.87 221.2 233.72 227.96 234.96 232.25 240.28 233.55 246.67"/>
    <polygon class="st1" points="289.12 276.27 288.11 283.1 283.12 288.1 276.28 288.05 269.88 287.35 264.79 282.9 264.8 276.27 266.46 270.6 269.44 264.41 276.28 262.95 282.33 265.79 286.45 270.39 289.12 276.27"/>
    <polygon class="st1" points="312.9 293.96 312.43 300.46 307.76 305.37 301.17 305.18 294.77 305.03 290.6 300.06 287.58 293.96 289.46 287.2 295.16 283.55 301.17 280.33 307.46 283.07 312.64 287.34 312.9 293.96"/>
    <polygon class="st1" points="273.05 365.98 270.8 372.19 266.59 377.32 260.04 379.42 253.77 376.83 249.97 371.79 246.71 365.98 249.58 359.94 254.16 355.79 260.04 353.02 266.15 355.39 271.08 359.6 273.05 365.98"/>
    <polygon class="st1" points="252.96 481 249.81 486.68 246.58 492.43 239.98 494.63 233.41 492.38 228.19 487.82 228.5 481 229.3 474.84 233.99 470.63 239.98 468.26 245.86 470.82 249.79 475.34 252.96 481"/>
    <polygon class="st1" points="317.5 523.12 315.08 528.79 311.94 534.67 305.27 534.89 298.97 534.04 295.17 528.96 294.06 523.12 294.68 517.01 298.72 511.77 305.27 511.4 311.82 511.79 316.21 516.81 317.5 523.12"/>
    <polygon class="st1" points="404.38 234.22 402.34 240.91 397.55 245.98 390.76 246.4 384.63 244.85 379.79 240.56 379.08 234.22 379.25 227.58 383.99 222.49 390.76 222.63 397.59 222.4 401.62 227.96 404.38 234.22"/>
    <polygon class="st1" points="432.55 269.07 432.07 275.89 426.41 279.72 420.27 281.37 413.88 280.14 408.52 275.86 407.42 269.07 409.23 262.7 414.24 258.63 420.27 257.03 425.98 259.17 431.25 262.73 432.55 269.07"/>
    <polygon class="st1" points="444.9 204.4 443.02 210.35 439.1 215.46 432.71 217.94 426.15 215.77 421.42 210.92 419.44 204.4 421.47 197.91 426.1 192.95 432.71 192.47 439.54 192.57 443.95 197.91 444.9 204.4"/>
    <polygon class="st1" points="385.87 301.15 382.56 306.8 379.03 311.99 372.77 314.03 366.53 311.96 361.76 307.51 359.11 301.15 361.13 294.43 366.64 290.53 372.77 288.9 379.45 289.59 383.19 295.14 385.87 301.15"/>
    <polygon class="st1" points="504.45 288.71 503.61 295.42 498.44 299.89 491.98 301.6 485.31 300.27 482.16 294.38 478.98 288.71 482.17 283.04 485.23 277.01 491.98 275.72 497.69 278.82 503.17 282.25 504.45 288.71"/>
    <polygon class="st1" points="175.72 365.98 173.07 372.13 168.03 375.72 162.41 377.42 155.72 377.56 150.68 372.75 149.94 365.98 150.67 359.2 156.67 356.04 162.41 354.04 169.18 354.24 173.87 359.36 175.72 365.98"/>
  </g>
</svg>