<?xml version="1.0" encoding="UTF-8"?>
<svg id="_레이어_1" xmlns="http://www.w3.org/2000/svg" xmlns:xlink="http://www.w3.org/1999/xlink" version="1.1" viewBox="0 0 787.88 1339.39">
  <!-- Generator: Adobe Illustrator 29.0.0, SVG Export Plug-In . SVG Version: 2.1.0 Build 186)  -->
  <defs>
    <style>
      .st0 {
        fill: none;
      }

      .st1 {
        fill: #410000;
      }

      .st2 {
        clip-path: url(#clippath-1);
      }

      .st3 {
        opacity: .3;
      }

      .st4 {
        clip-path: url(#clippath);
      }
    </style>
    <clipPath id="clippath">
      <polygon class="st0" points="532.92 565.3 513.01 463.7 506.47 334.11 502.4 312.38 491.17 252.41 461.09 209.17 415.87 199.51 402.82 196.72 357.81 226.61 316.47 222.2 269.46 570.36 272.45 684.55 264.26 711.26 310.28 713.5 300.28 680.41 293.69 627.22 351.58 593.36 376.9 689.48 379.62 730.69 420.51 722.6 398.26 681.08 388.32 640.88 390.76 618.01 385.32 602.3 389.41 530.68 387.93 461.13 425.47 442.9 445.5 421.9 444.47 544.25 430.79 589.05 479.73 588.94 475.1 557.31 479.86 416.68 477.46 380.83 483.59 373.48 486.54 410.01 497.35 540.15 494 579.82 532.92 565.3"/>
    </clipPath>
    <clipPath id="clippath-1">
      <polygon class="st0" points="175.01 197.31 126.5 185.01 93.21 188.57 125.57 218.72 146.88 244.12 130.68 270.86 122.56 301.13 149.81 333.4 170.95 402 188.49 446.06 192.93 479.45 180.32 522.59 209.24 593.29 244.22 640.62 304.69 639.07 352.88 622.86 375.63 576.36 377.44 500.93 348.6 446.25 347.65 338.51 343.2 278.43 346.11 251.16 337.24 235.98 312.1 204.83 323.34 182.9 324.45 122.52 318.95 106.81 286.26 146.91 262.14 172.8 208.11 170.59 175.01 197.31"/>
    </clipPath>
  </defs>
  <g id="_격리_모드" class="st3">
    <g class="st4">
      <g>
        <polygon class="st1" points="355.09 203.11 417.03 269.95 398.59 368.57 431.71 368.57 462.68 323.75 470.83 196.72 446.38 186 355.09 203.11"/>
        <polygon class="st1" points="373.02 333.53 355.09 368.57 364.05 393.03 377.44 388.14 389.32 363.28 389.32 333.53 373.02 333.53"/>
      </g>
      <polygon class="st1" points="514.39 301.95 469.39 333.95 474.85 357.78 502.39 386.95 525.39 365.95 514.39 312.95 514.39 301.95"/>
    </g>
  </g>
  <g id="_레이어_11" class="st3">
    <g class="st2">
      <g>
        <polygon class="st1" points="235.33 196.72 221 351 194.12 473.99 162 516 81.56 268.01 81.56 194.5 170.51 155.59 235.33 196.72"/>
        <polygon class="st1" points="211 258 259 275 301 407 307.37 472.96 279 544 324 645 471 548 301.29 42.55 229.57 75.15 211 258"/>
      </g>
    </g>
  </g>
</svg>