<?xml version="1.0" encoding="UTF-8"?>
<svg id="_레이어_1" xmlns="http://www.w3.org/2000/svg" version="1.1" viewBox="0 0 1976.13 561.39">
  <!-- Generator: Adobe Illustrator 29.0.0, SVG Export Plug-In . SVG Version: 2.1.0 Build 186)  -->
  <defs>
    <style>
      .st0 {
        fill: #dbdbdb;
      }

      .st1 {
        isolation: isolate;
      }
    </style>
  </defs>
  <polygon class="st0" points="559.46 178.79 630.89 181.29 702.32 190.42 773.75 186.68 845.19 195.03 916.62 193.82 988.05 184.03 1059.49 180.66 1130.92 187.76 1202.35 191.97 1273.79 187.21 1345.23 191.88 1416.67 179.44 1485.19 212.17 1510.05 280.69 1510.75 280.7 1485.12 349.15 1416.67 384.71 1345.24 376.12 1273.81 366.94 1202.38 377.23 1130.94 372.24 1059.51 377.95 988.08 372.24 916.64 381.39 845.21 371.29 773.78 382.8 702.34 381.29 630.9 366.94 559.46 378.49 496.03 344.12 459.32 280.7 459.74 280.69 487.57 208.8 559.46 178.79"/>
  <g class="st1">
    <g class="st1">
      <path d="M638.74,317.74v-84.68h52.93v10.59h-42.34v63.51h42.34v10.59h-52.93ZM723.43,328.33h-10.59v-95.27h10.59v42.34h10.59v10.59h-10.59v42.34Z"/>
      <path d="M744.6,296.57v-10.59h95.27v10.59h-95.27ZM829.28,254.23h-52.93v-10.59h-21.17v-10.59h74.1v21.17ZM829.28,275.4h-74.1v-21.17h21.17v10.59h52.93v10.59ZM829.28,317.74v10.59h-74.1v-21.17h10.59v10.59h63.51Z"/>
      <path d="M892.79,275.4v-42.34h52.93v42.34h-52.93ZM935.14,264.82v-21.17h-31.76v21.17h31.76ZM977.48,307.16h-52.93v-10.59h-21.17v-10.59h74.1v21.17ZM977.48,317.74v10.59h-74.1v-21.17h21.17v10.59h52.93ZM988.07,254.23h-10.59v21.17h-10.59v-42.34h10.59v10.59h10.59v10.59Z"/>
      <path d="M1040.99,317.74v-10.59h42.34v-31.76h10.59v31.76h42.34v10.59h-95.27ZM1125.68,296.57h-10.59v-52.93h-63.51v-10.59h74.1v63.51Z"/>
      <path d="M1146.85,317.74v-10.59h95.27v10.59h-95.27ZM1231.53,275.4v10.59h-74.1v-31.76h63.51v-10.59h-63.51v-10.59h74.1v31.76h-63.51v10.59h63.51Z"/>
      <path d="M1252.7,243.65v-10.59h52.93v42.34h-10.59v-31.76h-42.34ZM1252.7,317.74v-10.59h21.17v10.59h-21.17ZM1273.88,307.16v-10.59h10.59v10.59h-10.59ZM1284.46,275.4h10.59v21.17h-10.59v-21.17ZM1337.39,328.33h-10.59v-95.27h10.59v95.27Z"/>
    </g>
  </g>
</svg>