<?xml version="1.0" encoding="UTF-8"?>
<svg id="_레이어_1" xmlns="http://www.w3.org/2000/svg" version="1.1" viewBox="0 0 1179 879.28">
  <!-- Generator: Adobe Illustrator 29.0.0, SVG Export Plug-In . SVG Version: 2.1.0 Build 186)  -->
  <defs>
    <style>
      .st0 {
        fill: red;
      }
    </style>
  </defs>
  <path class="st0" d="M231.22,405.54c-9.23,26.23-34.01,49.55-73.36,49.55-43.72,0-82.59-27.69-82.59-82.59,0-13.12,1.94-25.75,5.34-37.41-35.95,0-48.1-16.03-48.1-30.12s12.15-25.26,23.32-25.26c5.83,0,10.2,3.4,10.2,8.74,0,13.6-23.32,16.52-23.32,28.18,0,8.26,13.6,15.55,38.38,15.55h.49c9.72-30.61,30.61-57.33,59.75-79.67-17.98-7.29-32.06-23.8-32.06-50.52,0-126.8,274.97-154.97,319.18-154.97,1.46,0,1.46,2.91,0,2.91-63.64,0-103.48,72.39-151.57,143.8,8.74-1.94,17.98-3.89,27.21-5.34,15.06-2.43,30.12-5.34,44.69-8.26,58.3-74.33,147.69-145.74,193.35-145.74,15.55,0,22.83,9.23,22.83,22.35,0,47.12-85.5,93.76-192.38,120.48-38.38,49.55-67.04,99.59-67.04,127.77,0,15.06,7.29,22.83,17,25.75,8.26-47.61,50.52-104.45,90.85-104.45,16.52,0,23.8,8.74,23.8,22.83,0,28.66-51.98,85.99-105.42,85.99h-1.94c-1.46,6.32-1.94,12.63-1.94,18.95,0,22.35,13.12,37.89,35.95,37.89,19.92,0,38.38-8.26,53.93-20.89,1.94-1.46,3.4.97,1.94,1.94-16.52,13.12-35.46,21.86-55.87,21.86-24.78,0-42.75-17.49-42.75-48.58,0-4.37.49-7.77.97-12.15-14.57-3.4-28.66-15.06-28.66-39.35,0-30.12,21.38-70.93,52.47-111.25-13.6,2.91-27.69,5.83-41.29,7.77l-30.12,5.83c-46.64,68.99-101.05,136.51-190.92,137.97-3.4,11.66-5.34,24.29-5.34,37.41,0,53.44,37.41,79.67,79.67,79.67,37.41,0,61.21-22.35,70.44-47.12l2.92.49h-.01ZM250.16,203.44c-40.32,11.17-75.3,27.2-102.99,47.61,3.4,1.46,12.15,2.91,18.46,2.91,10.2,0,19.43-1.94,28.18-6.32,1.46-.97,2.91.97,1.46,1.94-8.26,5.34-19.43,7.29-29.63,7.29-7.29,0-14.57-.97-21.38-3.4-29.15,21.86-49.55,49.07-59.76,78.7,65.58-1.94,116.6-63.64,165.66-128.74h0ZM400.28,51.86c-82.59,7.29-288.09,42.27-288.09,150.12,0,26.23,14.09,41.29,32.06,48.1,29.15-21.86,66.07-38.87,108.34-50.53,47.61-63.64,93.28-130.2,147.69-147.69h0ZM330.81,332.18h3.4c46.64,0,100.08-54.9,100.08-83.07,0-12.63-6.32-19.43-18.95-19.43-32.55,0-73.36,55.38-84.53,102.51h0ZM375.99,173.32c103.96-26.72,186.07-72.39,186.07-116.6,0-12.15-6.32-19.43-19.92-19.43-37.89,0-111.25,66.56-166.15,136.03h0Z"/>
  <path class="st0" d="M529.49,230.16c8.74,0,11.66,4.37,11.66,10.69,0,4.37-1.94,10.2-1.94,10.2h.97c8.74-11.17,15.55-19.43,15.55-19.43h.49s2.92,2.92,8.74,2.92c8.26,0,16.03-6.8,16.03-6.8.49-.49,1.46-.49.97,0,0,0-65.58,67.04-65.58,88.42,0,5.83,2.92,9.23,9.23,9.23,21.38,0,59.75-52.47,59.75-52.47h3.4s-40.32,55.38-63.64,55.38c-8.26,0-14.09-5.83-14.09-16.52,0-6.8,2.43-14.57,5.83-22.83h-.97c-17,20.89-39.35,39.35-53.44,39.35-12.63,0-18.46-11.66-18.46-23.8,0-35.95,55.38-74.33,85.5-74.33h0ZM462.93,325.38c23.32,0,75.3-59.75,75.3-84.53,0-4.86-1.94-7.77-7.29-7.77-24.29,0-76.76,59.75-76.76,83.56,0,5.34,2.92,8.74,8.75,8.74Z"/>
  <path class="st0" d="M357.51,370.56c14.09,0,25.75,3.89,34.01,9.72.97.97.49,2.92-.97,1.94-8.26-5.83-18.95-9.72-33.04-9.72-75.3,0-95.22,122.91,14.09,122.91,16.52,0,31.09-3.4,44.69-9.23-40.81-39.35-6.8-125.34,69.96-125.34,16.52,0,28.66,3.89,37.41,10.69l39.35-63.64c42.27-68.01,84.05-131.66,136.03-131.66,2.43,0,1.94,2.92,0,2.92-43.24,0-69.96,40.32-101.54,94.25h1.46c15.55-17.49,41.78-43.24,61.21-43.24,11.66,0,16.52,5.83,16.52,15.06,0,29.15-44.21,83.07-87.93,83.07-19.43,0-13.6-24.78,6.32-31.09,2.43-.49,2.92,1.94.97,2.43-17.97,4.86-22.35,25.75-8.26,25.75,28.66,0,78.22-62.67,78.22-86.47,0-4.37-2.43-5.83-5.83-5.83-25.26,0-69.47,51.98-84.53,77.24-43.72,72.39-90.36,149.14-154.49,176.84,11.66,9.72,28.18,15.55,51.01,15.55,94.25,0,145.74-104.93,211.33-208.9-14.09,16.03-33.52,34.49-49.55,34.49-1.94,0-1.46-2.91.49-2.91,24.78,0,62.67-52.47,62.67-52.47,35.95-54.41,70.44-96.68,113.68-96.68,2.43,0,1.94,2.92,0,2.92-43.24,0-69.96,40.81-101.54,94.25h1.46c16.03-17.49,42.27-43.24,61.21-43.24,11.66,0,16.52,5.83,16.52,15.06,0,29.15-44.21,83.07-87.93,83.07-19.43,0-13.6-24.78,6.32-31.09,2.43-.49,2.91,1.94.97,2.43-17.98,4.86-22.35,25.75-8.26,25.75,28.66,0,78.22-62.67,78.22-86.47,0-4.37-2.43-5.83-5.83-5.83-24.78,0-69.47,51.98-84.53,77.24-54.9,90.85-119.51,194.81-215.21,194.81-23.8,0-41.78-6.8-53.44-17-15.06,5.83-31.09,9.72-48.58,9.72-113.68,0-92.3-127.28-12.63-127.28l-.03-.02h0ZM522.2,373.96c-8.26-6.8-19.92-10.69-35.95-10.69-74.82,0-107.85,84.53-67.53,121.94,41.29-18.95,72.87-62.67,103.48-111.25ZM746.16,325.38c24.78,0,62.67-52.47,62.67-52.47h3.4s-39.84,55.38-66.56,55.38c-1.94,0-1.46-2.91.49-2.91Z"/>
  <path class="st0" d="M719.92,438.57c66.07,0,117.08-81.62,145.74-120.48,2.91-4.37,7.29-9.72,11.66-16.03h-1.46c-14.09,14.57-32.06,30.12-45.18,30.12-11.17,0-17.49-8.26-17.49-19.92,0-29.15,51.98-52.95,51.98-73.84,0-3.89-1.94-5.34-5.34-5.34-16.03,0-47.61,39.84-47.61,39.84h-3.4s32.06-42.75,51.5-42.75c8.74,0,15.55,5.83,15.55,14.57,0,29.15-54.9,52.47-54.9,74.82,0,6.8,3.89,9.72,9.72,9.72,24.78,0,68.98-56.84,95.22-98.62h.97s1.94,2.92,7.77,2.92c8.26,0,16.03-7.29,16.03-7.29.97,0,.97.97.97.97,0,0-33.52,42.27-73.36,92.3-30.61,39.35-86.96,121.45-158.37,121.45-67.04,0-53.92-79.19-7.77-79.19,4.37,0,8.26,3.89,8.26,8.26s-3.89,8.26-8.26,8.26c0,0-2.43-6.32-11.66-6.32-29.15,0-42.75,66.56,19.43,66.56h0Z"/>
  <path class="st0" d="M921.75,325.59c8.26-5.34,17-8.26,27.21-8.26,1.46,0,1.46,2.91,0,2.91-64.61,0-64.13,176.35-139.91,261.37h1.94c88.9-84.05,179.26-289.06,325.01-289.06,2.91,0,2.43,2.91,0,2.91-171.98,0-267.2,292.46-376.99,322.09-1.46.49-1.94-1.94,0-2.91,69.47-28.66,88.42-195.78,139.91-265.74h-.97c-72.87,72.87-152.55,265.74-282.26,265.74-35.95,0-48.1-15.55-48.1-30.12,0-13.6,11.66-24.78,22.83-24.78,6.32,0,10.69,3.4,10.69,8.74,0,13.6-23.32,16.03-23.32,27.69,0,8.26,13.12,15.55,37.89,15.55,142.83,0,225.42-238.53,306.06-286.14h0Z"/>
  <path class="st0" d="M895.02,561.69c-7.29,11.17-12.15,22.35-12.15,32.06,0,7.77,4.37,13.12,15.55,13.12,35.46,0,74.33-52.47,74.33-52.47h3.4s-40.32,55.38-79.19,55.38c-15.55,0-25.75-11.66-25.75-27.69,0-40.32,57.81-70.44,82.59-70.44,6.8,0,10.2,1.94,10.2,6.32,0,15.55-43.72,42.75-68.99,43.72h0ZM896.48,559.26c22.83-.97,62.67-28.18,62.67-41.78,0-2.43-1.46-3.4-3.89-3.4-16.03,0-42.75,21.86-58.78,45.18h0Z"/>
  <path class="st0" d="M1038.33,594.24c0-4.86.97-9.72,2.91-14.57-13.6,14.09-32.55,31.09-48.09,31.09-11.17,0-17.49-8.26-17.49-19.92,0-29.15,51.98-50.04,51.98-70.93,0-3.4-1.94-5.34-4.37-5.34-17,0-47.12,39.84-47.12,39.84h-3.4s32.06-42.75,51.5-42.75c8.26,0,14.09,5.83,14.09,14.57,0,29.15-54.9,49.55-54.9,71.9,0,6.8,3.89,9.72,9.72,9.72,21.86,0,53.44-39.35,68.5-59.27,13.12-17,16.52-27.2,16.52-27.2h.97s1.94,2.91,6.8,2.91c8.26,0,15.06-5.34,15.06-5.34.97-.97,1.46,0,.97.49,0,0-56.36,59.75-56.36,78.7,0,5.83,2.92,9.72,9.23,9.72,16.52,0,43.24-31.58,62.67-58.78,1.94-18.95,17.97-47.12,30.12-47.12,2.92,0,4.37,1.46,4.37,4.37,0,13.6-30.12,29.64-30.12,49.55,0,5.83,2.91,10.69,9.72,10.69,8.74,0,16.03-4.86,21.86-12.15h3.4c-7.29,8.26-15.06,14.57-25.26,14.57-8.26,0-13.6-5.83-14.09-15.06-20.4,27.2-46.15,56.84-63.16,56.84-9.72,0-16.03-6.8-16.03-16.52h0Z"/>
  <path class="st0" d="M403.93,682.66h-1.46c-42.27,42.75-86.96,73.36-112.71,73.36-13.6,0-22.35-9.72-22.35-20.89,0-40.81,105.91-107.85,105.91-168.09,0-32.55-26.72-52.47-63.64-52.47-82.59,0-166.15,98.62-166.15,155.46,0,21.38,10.69,37.89,36.92,37.89,61.21,0,120.97-81.62,120.97-117.57,0-10.2-3.4-17.98-14.09-17.98-2.43,0-1.94-1.94,1.46-1.94,13.6,0,18.46,9.72,18.46,22.83,0,39.84-57.33,118.54-123.4,118.54-30.61,0-43.24-17-43.24-41.78,0-58.3,84.05-158.37,169.06-158.37,41.78,0,74.33,25.75,74.33,66.56,0,63.16-102.99,132.63-102.99,164.2,0,5.83,2.92,10.2,13.6,10.2,22.83,0,94.25-51.5,139.91-110.77,42.75-55.38,85.99-105.42,135.06-105.42,2.43,0,2.43,2.91,0,2.91-107.85,0-167.61,291.49-362.9,291.49-35.95,0-48.1-16.03-48.1-30.12s12.15-25.26,23.32-25.26c5.83,0,10.2,3.4,10.2,8.74,0,13.6-23.32,16.03-23.32,27.69,0,8.26,13.12,16.03,37.89,16.03,80.65,0,141.86-72.39,197.24-145.26l.02.02h0Z"/>
  <path class="st0" d="M430.64,759.9c-7.29,11.17-12.15,22.35-12.15,32.06,0,7.77,4.37,13.12,15.55,13.12,35.46,0,74.33-52.47,74.33-52.47h3.4s-40.32,55.38-79.19,55.38c-15.55,0-25.75-11.66-25.75-27.69,0-40.32,57.81-70.44,82.59-70.44,6.8,0,10.2,1.94,10.2,6.32,0,15.55-43.72,42.75-68.98,43.72h0ZM432.1,757.47c22.83-.97,62.67-28.18,62.67-41.78,0-2.43-1.46-3.4-3.89-3.4-16.03,0-42.75,21.86-58.78,45.18h0Z"/>
  <path class="st0" d="M581.24,709.87c8.74,0,11.66,4.37,11.66,10.69,0,4.37-1.94,10.2-1.94,10.2h.97c8.74-11.17,15.55-19.43,15.55-19.43h.49s2.91,2.92,8.74,2.92c8.26,0,16.03-6.8,16.03-6.8.49-.49,1.46-.49.97,0,0,0-65.58,67.04-65.58,88.42,0,5.83,2.92,9.23,9.23,9.23,21.38,0,59.75-52.47,59.75-52.47h3.4s-40.32,55.38-63.64,55.38c-8.26,0-14.09-5.83-14.09-16.52,0-6.8,2.43-14.57,5.83-22.83h-.97c-17,20.89-39.35,39.35-53.44,39.35-12.63,0-18.46-11.66-18.46-23.81,0-35.95,55.38-74.33,85.5-74.33h0ZM514.68,805.09c23.32,0,75.3-59.76,75.3-84.53,0-4.86-1.94-7.77-7.29-7.77-24.29,0-76.76,59.75-76.76,83.56,0,5.34,2.92,8.74,8.75,8.74Z"/>
  <path class="st0" d="M677.43,698.21c-.49-2.91-.97-5.83-.97-9.72,0-21.86,16.52-28.66,16.52-17,0,6.8-3.89,15.06-12.15,26.72,3.89,10.2,13.12,18.46,33.03,18.46.97,0,.49.49,0,.97-1.46,1.94-62.67,59.27-62.67,77.73,0,6.32,2.43,9.72,8.74,9.72,23.32,0,64.61-52.47,64.61-52.47h3.4s-44.21,55.38-68.01,55.38c-8.74,0-13.12-5.83-13.12-15.55,0-27.2,39.84-68.5,42.27-71.41,3.89-4.37-5.83-8.75-10.2-19.92-9.23,13.6-22.83,30.61-38.38,51.5h-3.4c17-22.83,31.09-40.81,40.32-54.41h.01Z"/>
  <g>
    <path class="st0" d="M905.76,144.39c0,5.42-1.27,9.92-3.69,13.84-3,4.73-7.03,8.42-15.57,13.84-11.3,7.15-15.34,10.95-18.45,15.34h38.17v14.07h-59.27c0-10.72,3.69-18.22,10.72-24.9,4.38-4.15,9.11-7.38,20.41-14.99,6.34-4.27,11.3-8.88,11.3-15.91s-4.61-12.45-12.11-12.45c-8.07,0-12.68,7.15-12.8,18.56h-15.68v-1.5c0-18.68,11.3-31.13,29.29-31.13,14.87,0,27.67,9.57,27.67,25.25Z"/>
    <path class="st0" d="M970.33,160.77c0,27.79-10.38,42.32-29.75,42.32s-29.52-14.41-29.52-42.32,10.15-41.62,29.52-41.62,29.75,14.3,29.75,41.62ZM940.58,189.59c13.03,0,13.38-18.45,13.38-29.29s-1.04-27.67-13.49-27.67-13.03,19.49-13.03,27.67c0,10.03.12,29.29,13.14,29.29Z"/>
    <path class="st0" d="M1033.98,144.39c0,5.42-1.27,9.92-3.69,13.84-3,4.73-7.03,8.42-15.57,13.84-11.3,7.15-15.34,10.95-18.45,15.34h38.17v14.07h-59.27c0-10.72,3.69-18.22,10.72-24.9,4.38-4.15,9.11-7.38,20.41-14.99,6.34-4.27,11.3-8.88,11.3-15.91s-4.61-12.45-12.11-12.45c-8.07,0-12.68,7.15-12.8,18.56h-15.68v-1.5c0-18.68,11.3-31.13,29.29-31.13,14.87,0,27.67,9.57,27.67,25.25Z"/>
    <path class="st0" d="M1097.16,141.51h-15.57c-1.27-6.11-5.65-10.03-10.84-10.03-10.03,0-14.76,11.65-15.45,24.56l.23.23c4.5-6.34,10.15-8.99,18.1-8.99,12.45,0,24.91,9.23,24.91,26.29s-11.53,29.52-28.25,29.52c-22.02,0-31.02-17.53-31.02-41.74,0-18.91,8.19-42.2,31.71-42.2,14.18,0,24.33,8.3,26.17,22.37ZM1069.84,189.59c7.61,0,12.34-7.15,12.34-14.76s-3.8-15.22-12.45-15.22c-7.84,0-12.91,6.11-12.91,14.99,0,7.96,5.07,14.99,13.03,14.99Z"/>
  </g>
</svg>