<?xml version="1.0" encoding="UTF-8"?>
<svg id="_레이어_1" xmlns="http://www.w3.org/2000/svg" xmlns:xlink="http://www.w3.org/1999/xlink" version="1.1" viewBox="0 0 1008.13 389.59">
  <!-- Generator: Adobe Illustrator 29.0.0, SVG Export Plug-In . SVG Version: 2.1.0 Build 186)  -->
  <defs>
    <style>
      .st0 {
        fill: none;
      }

      .st1 {
        fill: #49c6ff;
      }

      .st2 {
        fill: #fff;
      }

      .st3 {
        opacity: .81;
      }

      .st4 {
        clip-path: url(#clippath);
      }
    </style>
    <clipPath id="clippath">
      <polygon class="st0" points="152.16 120.67 222.6 123.73 293.04 120.69 363.48 124.84 433.93 121.49 504.37 119.89 574.81 119.06 645.25 120.61 715.7 121.48 786.14 125.01 856.59 120.37 923.19 136.99 970.5 186.59 989.74 252.35 989.94 252.36 971.47 318.68 922.16 365.93 856.59 381 786.15 380.16 715.71 384.98 645.27 382.32 574.82 386.15 504.38 379.65 433.94 383.49 363.5 385.84 293.05 384.91 222.61 385.87 152.16 384.03 86.46 366.16 40 317.11 18.19 252.36 23.14 252.35 39.9 187.55 85.62 137.11 152.16 120.67"/>
    </clipPath>
  </defs>
  <polygon class="st3" points="152.16 120.67 222.6 123.73 293.04 120.69 363.48 124.84 433.93 121.49 504.37 119.89 574.81 119.06 645.25 120.61 715.7 121.48 786.14 125.01 856.59 120.37 923.19 136.99 970.5 186.59 989.74 252.35 989.94 252.36 971.47 318.68 922.16 365.93 856.59 381 786.15 380.16 715.71 384.98 645.27 382.32 574.82 386.15 504.38 379.65 433.94 383.49 363.5 385.84 293.05 384.91 222.61 385.87 152.16 384.03 86.46 366.16 40 317.11 18.19 252.36 23.14 252.35 39.9 187.55 85.62 137.11 152.16 120.67"/>
  <g>
    <path class="st2" d="M279.53,48.18v-7.59h68.36v7.59h-30.38v22.78h-7.59v-22.78h-30.39ZM309.91,10.21h-22.78V2.62h53.16v7.59h-22.78v7.59h-7.59v-7.59h0ZM287.12,33v-7.59h15.19v7.59h-15.19ZM309.91,17.81v7.59h-7.59v-7.59h7.59ZM325.1,17.81v7.59h-7.59v-7.59h7.59ZM325.1,33v-7.59h15.19v7.59h-15.19Z"/>
    <path class="st2" d="M351.68,33V10.21h7.59v22.78h-7.59ZM359.27,10.21V2.62h22.78v7.59h-22.78ZM359.27,33h22.78v7.59h-22.78v-7.59ZM412.44,63.37v7.59h-53.16v-22.78h7.59v15.19h45.57ZM382.06,33V10.21h7.59v22.78h-7.59ZM412.44,48.18h-7.59V2.62h7.59v45.57Z"/>
    <path class="st2" d="M437.61,25.4v-15.19h7.59v15.19h-7.59ZM467.99,2.62v7.59h-22.78V2.62h22.78ZM467.99,33h-22.78v-7.59h22.78v7.59ZM452.8,40.59v7.59h7.59v-7.59h7.59v22.78h7.59v7.59h-30.38v-30.38h7.59ZM452.8,55.78v7.59h7.59v-7.59h-7.59ZM467.99,25.4v-15.19h22.78V2.62h7.59v30.38h-7.59v-15.19h-15.19v7.59h-7.59ZM483.18,55.78v7.59h-7.59v-7.59h7.59ZM483.18,40.59h7.59v15.19h-7.59v-15.19ZM498.37,55.78v7.59h-7.59v-7.59h7.59ZM505.96,63.37v7.59h-7.59v-7.59h7.59Z"/>
    <path class="st2" d="M509.76,40.59v-7.59h68.35v7.59h-68.35ZM570.52,17.81v7.59h-53.16V2.62h7.59v15.19h45.57ZM570.52,63.37v7.59h-53.16v-22.78h7.59v15.19h45.57Z"/>
    <path class="st2" d="M595.69,40.59v-7.59h7.59V10.21h-7.59V2.62h37.97v7.59h-7.59v22.78h7.59v7.59h-37.97ZM610.88,63.37h45.57v7.59h-53.16v-22.78h7.59v15.19ZM610.88,33h7.59V10.21h-7.59v22.78ZM656.45,48.18h-7.59v-15.19h-15.19v-7.59h15.19v-7.59h-15.19v-7.59h15.19V2.62h7.59v45.57Z"/>
    <path class="st2" d="M667.85,10.21V2.62h37.97v7.59h-15.19v22.78h-7.59V10.21h-15.19ZM667.85,63.37v-15.19h7.59v15.19h-7.59ZM675.44,33h7.59v15.19h-7.59v-15.19ZM690.63,33h7.59v15.19h-7.59v-15.19ZM698.22,63.37v-15.19h7.59v15.19h-7.59ZM728.6,70.97h-7.59V2.61h7.59v68.36Z"/>
  </g>
  <g class="st4">
    <g>
      <path class="st1" d="M304.95,163.24c4-2.31,6.89-5.84,8.68-10.57,1.79-4.73,2.68-9.2,2.68-13.42s-1.42-7.62-4.26-10.26c-2.84-2.63-6.58-3.95-11.21-3.95-6.94,0-14.1,2.32-21.46,6.94-7.37,4.63-14.52,10.31-21.46,17.04-6.94,6.74-13.37,14-19.25,21.78-5.89,7.79-10.94,14.84-15.15,21.15-13.26,20.63-26.15,43.56-38.67,68.81-12.52,25.25-24.67,51.35-36.46,78.28h-2.21c2.53-12.41,3.79-24.51,3.79-36.3,0-10.52-.63-20.94-1.89-31.25-1.26-10.31-2.63-20.72-4.1-31.25-1.47-10.31-2.84-20.62-4.1-30.93-1.26-10.31-1.89-20.72-1.89-31.25,0-3.79.05-7.52.16-11.21.1-3.68.16-7.52.16-11.52h-.63c-4,8.42-8.79,18.78-14.36,31.09-5.58,12.31-11.89,25.31-18.94,38.98-7.05,13.68-14.84,27.25-23.36,40.72-8.52,13.47-17.57,25.62-27.15,36.46-9.58,10.84-19.62,19.62-30.14,26.36-10.52,6.74-21.46,10.1-32.83,10.1-2.53,0-5.21-.32-8.05-.95-2.84-.63-5.47-1.58-7.89-2.84-2.42-1.26-4.42-2.94-6-5.05-1.58-2.1-2.37-4.63-2.37-7.58,0-3.36,1.16-6.16,3.47-8.36,2.32-2.21,5.16-3.31,8.52-3.31,2.74,0,5,.9,6.79,2.68,1.79,1.79,2.68,4.05,2.68,6.79,0,1.47-.26,3-.79,4.58-.52,1.58-1.63,2.58-3.31,3,.21,1.06,1.26,2.32,3.16,3.79,1.89,1.47,4.84,2.21,8.84,2.21,9.68,0,19.3-3.21,28.88-9.63,9.57-6.42,18.94-14.88,28.09-25.41,9.15-10.52,17.99-22.67,26.51-36.46,8.52-13.78,16.62-27.94,24.31-42.46,7.68-14.52,14.88-28.99,21.62-43.4,6.73-14.41,12.73-27.62,17.99-39.61.42-2.1,1-4.58,1.74-7.42.73-2.84,1.84-5.57,3.31-8.21,1.47-2.63,3.31-4.89,5.52-6.79s4.78-2.84,7.73-2.84c-.63,2.11-1.47,4.26-2.52,6.47-1.06,2.21-2,4.89-2.84,8.05-.84,3.16-1.58,7-2.21,11.52-.63,4.53-.95,10.37-.95,17.52,0,8.63.63,17.2,1.89,25.73s2.63,17.31,4.1,26.36c1.47,9.05,2.84,18.42,4.1,28.09,1.26,9.68,1.89,19.99,1.89,30.93,0,6.11-.42,12.42-1.26,18.94-.84,6.52-2.32,13.57-4.42,21.15l.63.63c3.79-8.41,8.1-17.83,12.94-28.25,4.84-10.42,9.94-20.88,15.31-31.41,5.37-10.52,10.89-20.83,16.57-30.93,5.68-10.1,11.05-19.04,16.1-26.83,7.36-11.15,14.73-21.31,22.1-30.46,7.36-9.15,14.73-17.09,22.1-23.83,7.36-6.73,14.62-11.94,21.78-15.62,7.15-3.68,14.1-5.52,20.83-5.52,7.15,0,12.89,1.95,17.2,5.84,4.31,3.9,6.47,8.79,6.47,14.68,0,3.79-.79,7.26-2.37,10.42-1.58,3.16-3.63,6.05-6.15,8.68-2.53,2.63-5.37,4.89-8.52,6.79-3.16,1.89-6.31,3.37-9.47,4.42v-1.89Z"/>
      <path class="st1" d="M363.97,256.67c-5.05,5.68-10.73,10.21-17.05,13.57-6.31,3.37-12.52,5.05-18.62,5.05s-10.94-1.31-15.15-3.95c-4.21-2.63-7.47-5.73-9.79-9.31h-.63c-2.11,8-6,16.52-11.68,25.57-5.68,9.05-12.47,17.36-20.36,24.94s-16.57,13.89-26.04,18.94c-9.47,5.05-19.15,7.58-29.04,7.58-9.05,0-15.89-2.63-20.52-7.89-4.63-5.26-6.94-12.31-6.94-21.15,0-4.63,1.15-9.99,3.47-16.1,2.31-6.1,5.52-12.26,9.63-18.47,4.1-6.2,8.94-12.31,14.52-18.31,5.57-6,11.62-11.36,18.15-16.1,6.52-4.74,13.42-8.52,20.67-11.36s14.57-4.26,21.94-4.26c8.63,0,15.31,2.53,20.04,7.58,4.73,5.05,7.31,11.58,7.73,19.57.42,4.84,2.68,9.31,6.79,13.42,4.1,4.1,9.73,6.16,16.89,6.16,6.31,0,12.26-1.58,17.83-4.73,5.57-3.16,10.78-7.26,15.62-12.31l2.53,1.58ZM205.2,317.59c0,5.47,1.05,9.78,3.16,12.94,2.1,3.16,5.26,4.73,9.47,4.73,5.68,0,11.31-1.52,16.89-4.58,5.57-3.05,10.94-7.05,16.1-11.99,5.15-4.94,9.94-10.57,14.36-16.89,4.42-6.31,8.26-12.83,11.52-19.57,3.26-6.73,5.84-13.31,7.73-19.73,1.89-6.42,2.84-12.26,2.84-17.52,0-4.42-1.1-8.15-3.31-11.21-2.21-3.05-5.63-4.58-10.26-4.58s-9.15,1.42-14.2,4.26-10.16,6.58-15.31,11.21c-5.16,4.63-10.05,10-14.68,16.1-4.63,6.11-8.79,12.42-12.47,18.94-3.68,6.52-6.58,13.05-8.68,19.57-2.11,6.53-3.16,12.63-3.16,18.31Z"/>
      <path class="st1" d="M453.92,118.1c-18.1,27.99-33.73,52.03-46.87,72.13-13.15,20.1-24.3,37.14-33.46,51.14-9.15,14-16.52,25.41-22.1,34.25-5.58,8.84-9.84,16.1-12.78,21.78-2.95,5.68-4.95,10.26-6,13.73-1.06,3.47-1.58,6.79-1.58,9.94,0,4.21,1.26,7.63,3.79,10.26,2.52,2.63,5.79,3.95,9.79,3.95,7.58,0,15.73-3.16,24.46-9.47,8.73-6.31,16.78-13.99,24.15-23.04,7.36-9.04,13.52-18.41,18.47-28.09,4.94-9.68,7.42-17.99,7.42-24.94,0-2.31-.53-4.58-1.58-6.79-1.06-2.21-1.58-4.58-1.58-7.1,0-2.94.68-5.42,2.05-7.42,1.37-2,3.63-3,6.79-3,3.58,0,6.36,1.89,8.36,5.68,2,3.79,3,8.73,3,14.84,0,5.05-.42,9.68-1.26,13.89,1.89,2.53,5.05,4.95,9.47,7.26,4.42,2.32,9.36,3.47,14.84,3.47,6.1,0,11.73-1.58,16.89-4.73,5.15-3.16,9.52-7.05,13.1-11.68l2.21,2.21c-3.37,4.21-7.89,8.16-13.57,11.84-5.68,3.68-11.99,5.52-18.94,5.52-4.84,0-9.37-.89-13.57-2.68-4.21-1.79-8.1-4.15-11.68-7.1-2.74,8.63-7.31,17.42-13.73,26.36-6.42,8.95-13.89,17.04-22.41,24.3s-17.57,13.15-27.15,17.68c-9.58,4.52-18.89,6.79-27.93,6.79-7.37,0-13.63-2.16-18.78-6.47-5.16-4.31-7.73-10.47-7.73-18.47,0-3.36.63-7.1,1.89-11.21,1.26-4.1,3.47-9.2,6.63-15.31,3.16-6.1,7.52-13.68,13.1-22.73,5.57-9.04,12.68-20.25,21.31-33.62,8.63-13.36,19.04-29.25,31.25-47.66,12.2-18.41,26.51-40.03,42.93-64.87l20.83-.63Z"/>
      <path class="st1" d="M625.32,256.67c-5.05,5.68-10.73,10.21-17.04,13.57-6.31,3.37-12.52,5.05-18.62,5.05s-10.94-1.31-15.15-3.95c-4.21-2.63-7.47-5.73-9.79-9.31h-.63c-2.11,8-6,16.52-11.68,25.57-5.68,9.05-12.47,17.36-20.36,24.94-7.89,7.58-16.57,13.89-26.04,18.94-9.47,5.05-19.15,7.58-29.04,7.58-9.05,0-15.89-2.63-20.52-7.89-4.63-5.26-6.94-12.31-6.94-21.15,0-4.63,1.15-9.99,3.47-16.1,2.31-6.1,5.52-12.26,9.63-18.47,4.1-6.2,8.94-12.31,14.52-18.31,5.57-6,11.62-11.36,18.15-16.1,6.52-4.74,13.42-8.52,20.68-11.36s14.57-4.26,21.94-4.26c8.63,0,15.31,2.53,20.04,7.58,4.74,5.05,7.31,11.58,7.73,19.57.42,4.84,2.68,9.31,6.79,13.42s9.73,6.16,16.89,6.16c6.31,0,12.26-1.58,17.83-4.73,5.57-3.16,10.78-7.26,15.62-12.31l2.53,1.58ZM466.54,317.59c0,5.47,1.05,9.78,3.16,12.94,2.1,3.16,5.26,4.73,9.47,4.73,5.68,0,11.31-1.52,16.89-4.58,5.57-3.05,10.94-7.05,16.1-11.99,5.15-4.94,9.94-10.57,14.36-16.89,4.42-6.31,8.26-12.83,11.52-19.57,3.26-6.73,5.84-13.31,7.73-19.73,1.89-6.42,2.84-12.26,2.84-17.52,0-4.42-1.11-8.15-3.31-11.21-2.21-3.05-5.63-4.58-10.26-4.58s-9.15,1.42-14.21,4.26-10.15,6.58-15.31,11.21c-5.16,4.63-10.05,10-14.68,16.1-4.63,6.11-8.79,12.42-12.47,18.94-3.68,6.52-6.58,13.05-8.68,19.57-2.11,6.53-3.16,12.63-3.16,18.31Z"/>
      <path class="st1" d="M793.24,118.1c-8.21,13.05-17.15,26.83-26.83,41.35-9.68,14.52-19.36,28.94-29.04,43.24-9.68,14.31-18.99,28.15-27.94,41.51-8.95,13.37-16.89,25.62-23.83,36.77-6.94,11.16-12.47,20.78-16.57,28.88-4.1,8.1-6.16,14.05-6.16,17.83,0,2.32.58,4.16,1.74,5.52,1.15,1.37,2.89,2.05,5.21,2.05,5.26,0,11.25-2.1,17.99-6.31,6.73-4.21,14.84-10.84,24.3-19.89,8.21-7.99,16.2-16.89,23.99-26.67,7.78-9.79,14.52-19.41,20.2-28.88l2.53,1.26c-1.89,3.37-4.37,7.31-7.42,11.84-3.05,4.53-6.42,9.21-10.1,14.05-3.68,4.84-7.63,9.74-11.84,14.68-4.21,4.95-8.52,9.63-12.94,14.05-8.42,8.63-16.73,15.73-24.94,21.31-8.21,5.58-15.78,8.37-22.73,8.37s-11.73-1.42-14.99-4.26c-3.26-2.84-4.89-6.47-4.89-10.89,0-4,.84-7.89,2.53-11.68,1.68-3.79,3.37-7.15,5.05-10.1l-.63-.32c-3.37,3.79-7.1,7.84-11.21,12.15-4.1,4.32-8.47,8.37-13.1,12.15-4.63,3.79-9.52,6.89-14.68,9.31-5.16,2.42-10.47,3.63-15.94,3.63-7.57,0-13.41-2.32-17.52-6.94s-6.16-10.1-6.16-16.41c0-8.84,3.05-18.51,9.15-29.04,6.1-10.52,13.73-20.31,22.88-29.36,9.15-9.05,18.99-16.62,29.51-22.73,10.52-6.1,20.3-9.15,29.36-9.15,6.73,0,12.1,2.11,16.1,6.31,3.99,4.21,5.89,9.58,5.68,16.1h.95l81.44-129.73h20.83ZM681.18,248.14c0-5.05-.84-9.47-2.53-13.26-1.69-3.79-5.58-5.68-11.68-5.68-4.21,0-8.89,1.47-14.04,4.42-5.16,2.95-10.37,6.84-15.62,11.68-5.26,4.84-10.37,10.37-15.31,16.57-4.95,6.21-9.31,12.52-13.1,18.94-3.79,6.42-6.84,12.68-9.15,18.78-2.32,6.11-3.47,11.58-3.47,16.41,0,4.42.84,8.1,2.53,11.05,1.68,2.95,4.73,4.42,9.15,4.42,3.79,0,8.15-1.47,13.1-4.42,4.94-2.94,10.15-6.79,15.62-11.52,5.47-4.74,10.83-10.15,16.1-16.26,5.26-6.1,9.99-12.2,14.2-18.31,4.21-6.1,7.62-12.04,10.26-17.83,2.63-5.79,3.95-10.78,3.95-14.99Z"/>
      <path class="st1" d="M786.6,227.94c-7.58,10.94-15.15,21.46-22.73,31.56-7.58,10.1-14.36,19.36-20.36,27.78-6,8.42-10.89,15.84-14.68,22.25-3.79,6.42-5.68,11.52-5.68,15.31,0,6.11,2.94,9.15,8.84,9.15s13.2-2.94,21.31-8.84c8.1-5.89,16.67-13.73,25.72-23.52,9.04-9.79,18.25-21.04,27.62-33.77,9.36-12.73,18.36-26.04,26.99-39.93h19.57c-12.42,17.04-23.99,34.56-34.72,52.56-10.73,17.99-21.99,35.83-33.78,53.5,19.99-3.58,39.09-12.36,57.29-26.36,18.2-13.99,34.35-31.41,48.45-52.24l2.21.95c-15.15,23.15-32.36,41.72-51.61,55.71-19.25,14-38.78,22.57-58.55,25.73-8.21,11.15-16.57,22.46-25.09,33.93-8.52,11.47-17.89,21.78-28.09,30.93-10.21,9.15-21.41,16.62-33.62,22.41-12.2,5.79-25.99,8.68-41.35,8.68-6.94,0-13.52-.9-19.73-2.68-6.2-1.79-11.62-4.26-16.26-7.42-4.62-3.16-8.31-6.94-11.05-11.36-2.73-4.42-4.1-9.15-4.1-14.2,0-10.94,3.63-18.94,10.89-23.99,7.26-5.05,16.05-7.58,26.36-7.58v.95c-7.57,1.68-13.15,5.1-16.73,10.26-3.58,5.15-5.37,11.62-5.37,19.41,0,5.26,1.06,9.94,3.16,14.05,2.11,4.1,4.84,7.52,8.21,10.26,3.37,2.73,7.21,4.84,11.52,6.31,4.32,1.47,8.79,2.21,13.42,2.21,9.89,0,19.47-2.32,28.72-6.94,9.26-4.63,18.15-10.73,26.67-18.31,8.52-7.58,16.67-16.15,24.46-25.73,7.78-9.58,15.15-19.47,22.1-29.67,6.94-10.21,13.41-20.2,19.41-29.99,6-9.79,11.52-18.57,16.57-26.36l-.63-.63c-3.37,4-7.47,8.68-12.31,14.05-4.84,5.37-10.15,10.47-15.94,15.31-5.79,4.84-11.95,8.95-18.46,12.31-6.53,3.36-13.26,5.05-20.2,5.05s-11.57-1.37-14.52-4.1c-2.94-2.73-4.42-6.42-4.42-11.05,0-4.21,1.1-8.68,3.31-13.42,2.21-4.73,5.73-10.68,10.57-17.83,4.84-7.15,10.99-15.89,18.46-26.2,7.47-10.31,16.46-23.15,26.99-38.51h21.15Z"/>
      <path class="st1" d="M879.4,208.06c3.16-1.26,6.63-2.89,10.42-4.89,3.79-2,7.31-4.31,10.57-6.94,3.26-2.63,6.1-5.79,8.52-9.47,2.42-3.68,3.95-7.94,4.58-12.78-3.16,0-6.16-.79-9-2.37-2.84-1.58-4.26-4.47-4.26-8.68s1.15-7.26,3.47-9.15c2.31-1.89,5.37-2.84,9.15-2.84,3.58,0,6.47,1.47,8.68,4.42,2.21,2.95,3.31,6.11,3.31,9.47,0,5.89-1.58,11.36-4.74,16.41-3.16,5.05-7,9.58-11.52,13.57-4.53,4-9.42,7.37-14.68,10.1-5.26,2.74-10,4.74-14.21,6l-.32-2.84Z"/>
      <path class="st1" d="M1031.54,255.09c-6.31,10.1-13.63,20.15-21.94,30.14-8.31,10-17.41,18.99-27.3,26.99-9.89,8-20.68,14.47-32.35,19.41-11.68,4.94-24.15,7.42-37.41,7.42-5.05,0-9.79-.63-14.2-1.89-4.42-1.26-8.26-3.16-11.52-5.68-3.26-2.52-5.89-5.73-7.89-9.63-2-3.89-3-8.47-3-13.73s1.79-10.42,5.37-14.84c3.58-4.42,8.41-6.63,14.52-6.63,3.16,0,5.73.79,7.73,2.37,2,1.58,3,3.95,3,7.1,0,2.95-.74,5.47-2.21,7.58-1.47,2.11-3.69,3.16-6.63,3.16-2.32,0-4.16-.63-5.53-1.89-1.37-1.26-2.26-2.84-2.68-4.74-2.32,1.26-3.89,3.11-4.73,5.52-.84,2.42-1.26,4.89-1.26,7.42,0,7.37,2.79,12.89,8.37,16.57,5.57,3.68,11.84,5.52,18.78,5.52,4.42,0,8.26-.89,11.52-2.68,3.26-1.79,6-4.1,8.21-6.94,2.21-2.84,3.84-6.16,4.89-9.94,1.05-3.79,1.58-7.58,1.58-11.36,0-4-.69-8.15-2.05-12.47-1.37-4.31-2.89-8.57-4.58-12.78-1.69-4.21-3.27-8.36-4.73-12.47-1.47-4.1-2.21-7.94-2.21-11.52,0-4.63.95-8.78,2.84-12.47,1.89-3.68,4.47-6.79,7.73-9.31,3.26-2.53,6.99-4.47,11.21-5.84,4.21-1.37,8.62-2.05,13.26-2.05,8.41,0,15.26,1.84,20.52,5.52,5.26,3.68,7.89,8.58,7.89,14.68,0,5.47-2.05,9.47-6.15,12s-8.68,3.79-13.73,3.79c1.26-2.31,2.37-5.1,3.31-8.37.95-3.26,1.42-6.26,1.42-9,0-4.21-1.32-7.73-3.95-10.57-2.63-2.84-6.37-4.26-11.21-4.26-6.11,0-10.63,1.84-13.57,5.52-2.95,3.68-4.42,8.16-4.42,13.42,0,4.63.79,9.05,2.37,13.26,1.58,4.21,3.42,8.42,5.52,12.63,1.89,4.21,3.63,8.52,5.21,12.94s2.37,9.37,2.37,14.83c0,4-.9,7.84-2.68,11.52-1.79,3.68-4.16,7.05-7.1,10.1-2.95,3.05-6.26,5.63-9.94,7.73-3.68,2.11-7.42,3.47-11.21,4.1l.63.63c11.36-1.26,22.2-4.58,32.51-9.94,10.31-5.37,19.94-11.89,28.88-19.57,8.94-7.68,17.2-16.1,24.78-25.25,7.58-9.15,14.21-18.15,19.89-26.99l1.89.95Z"/>
    </g>
  </g>
</svg>