<?xml version="1.0" encoding="UTF-8"?>
<svg id="_레이어_2" xmlns="http://www.w3.org/2000/svg" xmlns:xlink="http://www.w3.org/1999/xlink" version="1.1" viewBox="0 0 787.88 1339.39">
  <!-- Generator: Adobe Illustrator 29.0.0, SVG Export Plug-In . SVG Version: 2.1.0 Build 186)  -->
  <defs>
    <style>
      .st0 {
        fill: none;
      }

      .st1 {
        fill: #e0a9b0;
      }

      .st2 {
        opacity: .22;
      }

      .st3 {
        fill: #c1272d;
      }

      .st4 {
        clip-path: url(#clippath);
      }
    </style>
    <clipPath id="clippath">
      <polygon class="st0" points="362.18 603.85 352.88 622.86 304.69 639.07 244.22 640.62 209.24 593.29 206.77 587.25 189.1 585.37 174.92 718.2 174 866 153.68 917.18 124 1068 130.68 1132.59 197.71 1139.75 274 1133 483.08 1170.22 581 1191.3 680.55 1191.3 677 1136 699.17 1016.91 715.3 865.82 718 715 738.98 644.07 642 629 556 636 515.19 620.18 446 621 362.18 603.85"/>
    </clipPath>
  </defs>
  <polygon class="st3" points="491.17 252.41 502.4 312.38 508.65 315.79 519.76 345.33 514.49 318.99 531.17 328.1 511.39 303.45 506.87 280.86 532.92 311.7 472.32 210.19 443.62 198.2 415.87 199.51 415.87 199.51 461.09 209.17 491.17 252.41"/>
  <polygon class="st3" points="371.86 233.68 416.78 248.15 373.05 222.49 408.77 221.58 374.05 213.16 356.4 223.77 325.4 221.3 337.24 235.98 346.11 251.16 343.2 278.43 345.73 312.58 359.44 341.87 356.64 281.82 370.99 332.43 365.28 259.88 392.54 309.49 379.5 252.66 400.69 273 371.86 233.68"/>
  <polygon class="st3" points="188.19 173.81 161.26 226.09 184.34 209.87 191.21 262.2 204.75 185.36 213.86 258.39 231.83 190.03 232.12 245.66 250.65 180.47 273.09 220.23 262.14 172.8 228.68 161.22 188.19 173.81"/>
  <polygon class="st1" points="362.18 603.85 352.88 622.86 304.69 639.07 244.22 640.62 209.24 593.29 206.77 587.25 189.1 585.37 174.92 718.2 174 866 153.68 917.18 124 1068 130.68 1132.59 197.71 1139.75 274 1133 483.08 1170.22 581 1191.3 680.55 1191.3 677 1136 699.17 1016.91 715.3 865.82 718 715 738.98 644.07 642 629 556 636 515.19 620.18 446 621 362.18 603.85"/>
  <g class="st2">
    <g class="st4">
      <polygon points="226.67 616.87 238.05 666.52 238.48 688.08 254.41 696.39 268.06 691.11 273.46 663.34 285 657 295 662 300 681 300.74 711.99 325.31 715.19 329 684 318 665 336 651 348 606 226.67 616.87"/>
    </g>
  </g>
</svg>