<?xml version="1.0" encoding="UTF-8"?>
<svg id="_레이어_3" xmlns="http://www.w3.org/2000/svg" version="1.1" viewBox="0 0 787.88 1339.39">
  <!-- Generator: Adobe Illustrator 29.0.0, SVG Export Plug-In . SVG Version: 2.1.0 Build 186)  -->
  <defs>
    <style>
      .st0 {
        fill: lime;
      }

      .st1 {
        fill: red;
      }
    </style>
  </defs>
  <polygon class="st1" points="49.05 142.83 117.91 138.69 187.18 140.47 256.31 139.24 325.3 134.6 394.26 129.34 463.2 123.44 532.12 117.16 597.85 122.33 608.98 193.39 610.12 268.28 614.19 343.04 613.27 418.03 620.73 492.65 617.53 567.74 621.89 640.57 554.9 643.06 485.84 646.07 416.92 652.24 347.67 650.75 278.79 657.75 209.63 658.44 140.87 668.45 71.13 666.79 69.56 591.48 68.4 516.58 64.12 441.83 62.36 366.96 56.38 292.28 49.24 217.63 49.05 142.83"/>
  <polygon class="st0" points="78.7 378.99 127.83 378.99 127.83 420.99 154.74 420.99 148.89 363.99 172.28 357.99 186.32 486.99 164.09 473.99 157.07 432.99 121.98 435.99 132.51 490.99 91.57 490.99 78.7 378.99"/>
  <path class="st0" d="M167.58,511.45h-66l-18,102h22l8-46,44-5-.35,78.29,24.21-3.48-13.85-125.81h0ZM142.58,546.45h-23l5-22h18v22Z"/>
  <path class="st0" d="M558.83,325.49l-50,20v98h22v-60l38-5-10-53ZM525.83,363.49v-11h20l6,11h-26Z"/>
  <path class="st0" d="M602.83,412.83l-60-18v118l36-7-17-33,41-25v-35h0ZM559.83,432.83l-3.06-23,23.06,12,6,11h-26Z"/>
  <polygon class="st0" points="545.11 564.65 514.58 507 543.86 518 560.6 553 577.33 483 606.61 483 548.05 635 502 635 545.11 564.65"/>
  <polygon class="st0" points="124.68 161.37 80.57 166.5 65.97 201.55 82.27 198.62 90.16 179.1 116.5 179.33 137.67 227.45 69.67 248.62 69.67 273 179.69 255.04 169.11 239 146.01 244.13 167.82 222.96 124.68 161.37"/>
  <path class="st0" d="M335.11,150.2l-36.63,21.43,43,50.38,27.8,4.05,5.21-75.86h-39.38,0ZM358.27,208.68l-16.79-5.21-16.79-31.85,16.79-5.21h16.79v42.27h0Z"/>
  <polygon class="st0" points="431.29 141.93 391.91 140.18 377.51 181.85 391.9 183.42 400.23 151.94 419.97 154.09 434.12 190.24 382.34 227.92 380.73 242.73 447.77 250.04 445.39 236.46 398.32 227.81 450.09 196.42 431.29 141.93"/>
  <path class="st0" d="M497,156.04l26,1,31.07,5.93,14.29,35.25,18.1,1.91-29.53-58.01-73.68-1.93-13.94,13.34-26.62,151.52,114.24-3.94,29.53-81.73-108.65-10.31,7.77-36.03,11.42-17h0ZM552.17,238.1l-12.38,32.5-70.79,10.44,9.2-49.31,73.98,6.37h-.01Z"/>
</svg>