<?xml version="1.0" encoding="UTF-8"?>
<svg id="_격리_모드" data-name="격리_모드" xmlns="http://www.w3.org/2000/svg" version="1.1" xmlns:xlink="http://www.w3.org/1999/xlink" viewBox="0 0 763.24 799.23">
  <!-- Generator: Adobe Illustrator 30.1.0, SVG Export Plug-In . SVG Version: 2.1.1 Build 136)  -->
  <defs>
    <style>
      .st0 {
        fill: #d42042;
      }

      .st1 {
        clip-path: url(#clippath);
      }
    </style>
    <clipPath id="clippath">
      <path class="st0" d="M405.21,668.12C117.27,682.76-48.53,480.61,48.94,287.44c80.66-159.85,320.71-166.3,475.13-131.22,23.77-40.96,73.97-35.66,91.73-11.76,10.58,14.24,12.99,31.75,9.34,47.8,20.59,10.77,38.63,23.05,53.38,36.62,179.58,165.21,14.64,424.6-273.3,439.24ZM576.82,99.99c25.25-1.88,39.71-35.14,23.96-56.34-10.7-14.4-41.08-17.52-55.2,7.51-14.12,25.04,5.99,50.7,31.24,48.83Z"/>
    </clipPath>
  </defs>
  <path class="st0" d="M405.21,668.12C117.27,682.76-48.53,480.61,48.94,287.44c80.66-159.85,320.71-166.3,475.13-131.22,23.77-40.96,73.97-35.66,91.73-11.76,10.58,14.24,12.99,31.75,9.34,47.8,20.59,10.77,38.63,23.05,53.38,36.62,179.58,165.21,14.64,424.6-273.3,439.24ZM576.82,99.99c25.25-1.88,39.71-35.14,23.96-56.34-10.7-14.4-41.08-17.52-55.2,7.51-14.12,25.04,5.99,50.7,31.24,48.83Z"/>
  <g class="st1">
    <g>
      <rect class="st0" x="-409.48" y="-77.12" width="1660.96" height="880.6" transform="translate(-61.67 87.2) rotate(-11.02)"/>
      <g>
        <circle class="st0" cx="-93.3" cy="81.13" r="6.06"/>
        <circle class="st0" cx="-39.74" cy="70.7" r="6.06"/>
        <circle class="st0" cx="13.82" cy="60.27" r="6.06"/>
        <circle class="st0" cx="67.38" cy="49.83" r="6.06"/>
        <circle class="st0" cx="120.95" cy="39.4" r="6.06"/>
        <circle class="st0" cx="174.51" cy="28.96" r="6.06"/>
        <circle class="st0" cx="228.07" cy="18.53" r="6.06"/>
        <circle class="st0" cx="281.64" cy="8.1" r="6.06"/>
        <circle class="st0" cx="335.19" cy="-2.34" r="6.06"/>
        <circle class="st0" cx="388.75" cy="-12.77" r="6.06"/>
        <circle class="st0" cx="442.32" cy="-23.2" r="6.06"/>
        <circle class="st0" cx="495.88" cy="-33.64" r="6.06"/>
        <circle class="st0" cx="549.44" cy="-44.07" r="6.06"/>
        <circle class="st0" cx="603.01" cy="-54.51" r="6.06"/>
        <circle class="st0" cx="656.57" cy="-64.94" r="6.06"/>
        <circle class="st0" cx="710.13" cy="-75.38" r="6.06"/>
        <circle class="st0" cx="763.68" cy="-85.81" r="6.06"/>
        <circle class="st0" cx="-58.04" cy="118.06" r="6.06"/>
        <circle class="st0" cx="-4.47" cy="107.63" r="6.06"/>
        <circle class="st0" cx="49.09" cy="97.19" r="6.06" transform="translate(-54.1 131.95) rotate(-81.82)"/>
        <circle class="st0" cx="102.65" cy="86.76" r="6.06"/>
        <circle class="st0" cx="156.22" cy="76.32" r="6.06"/>
        <circle class="st0" cx="209.78" cy="65.89" r="6.06"/>
        <circle class="st0" cx="263.34" cy="55.46" r="6.06"/>
        <circle class="st0" cx="316.91" cy="45.02" r="6.06"/>
        <circle class="st0" cx="370.46" cy="34.59" r="6.06"/>
        <circle class="st0" cx="424.02" cy="24.16" r="6.06"/>
        <circle class="st0" cx="477.59" cy="13.72" r="6.06"/>
        <circle class="st0" cx="531.15" cy="3.29" r="6.06"/>
        <circle class="st0" cx="584.71" cy="-7.15" r="6.06"/>
        <circle class="st0" cx="638.28" cy="-17.58" r="6.06"/>
        <circle class="st0" cx="691.84" cy="-28.01" r="6.06"/>
        <circle class="st0" cx="745.4" cy="-38.45" r="6.06"/>
        <circle class="st0" cx="798.96" cy="-48.88" r="6.06"/>
        <circle class="st0" cx="-76.43" cy="167.69" r="6.06"/>
        <circle class="st0" cx="-22.88" cy="157.26" r="6.06"/>
        <circle class="st0" cx="30.68" cy="146.83" r="6.06"/>
        <circle class="st0" cx="84.25" cy="136.39" r="6.06"/>
        <circle class="st0" cx="137.81" cy="125.96" r="6.06"/>
        <circle class="st0" cx="191.37" cy="115.53" r="6.06"/>
        <circle class="st0" cx="244.94" cy="105.09" r="6.06"/>
        <circle class="st0" cx="298.5" cy="94.66" r="6.06"/>
        <circle class="st0" cx="352.05" cy="84.23" r="6.06"/>
        <circle class="st0" cx="405.61" cy="73.79" r="6.06"/>
        <circle class="st0" cx="459.18" cy="63.36" r="6.06"/>
        <circle class="st0" cx="512.74" cy="52.92" r="6.06"/>
        <circle class="st0" cx="566.3" cy="42.49" r="6.06"/>
        <circle class="st0" cx="619.87" cy="32.06" r="6.06"/>
        <circle class="st0" cx="673.43" cy="21.62" r="6.06"/>
        <circle class="st0" cx="726.99" cy="11.19" r="6.06"/>
        <circle class="st0" cx="780.55" cy=".76" r="6.06"/>
        <circle class="st0" cx="-41.17" cy="204.62" r="6.06"/>
        <circle class="st0" cx="12.39" cy="194.19" r="6.06"/>
        <circle class="st0" cx="65.97" cy="183.76" r="6.06" transform="translate(-124.77 225.46) rotate(-82.59)"/>
        <circle class="st0" cx="119.52" cy="173.32" r="6.06"/>
        <circle class="st0" cx="173.08" cy="162.89" r="6.06"/>
        <circle class="st0" cx="226.64" cy="152.45" r="6.06"/>
        <circle class="st0" cx="280.21" cy="142.02" r="6.06"/>
        <circle class="st0" cx="333.77" cy="131.59" r="6.06"/>
        <circle class="st0" cx="387.32" cy="121.15" r="6.06"/>
        <circle class="st0" cx="440.89" cy="110.72" r="6.06"/>
        <circle class="st0" cx="494.45" cy="100.29" r="6.06"/>
        <circle class="st0" cx="548.01" cy="89.85" r="6.06"/>
        <circle class="st0" cx="601.58" cy="79.42" r="6.06"/>
        <circle class="st0" cx="655.14" cy="68.98" r="6.06"/>
        <circle class="st0" cx="708.7" cy="58.55" r="6.06"/>
        <circle class="st0" cx="762.27" cy="48.12" r="6.06"/>
        <circle class="st0" cx="815.82" cy="37.68" r="6.06"/>
        <circle class="st0" cx="-59.57" cy="254.26" r="6.06"/>
        <circle class="st0" cx="-6.02" cy="243.83" r="6.06"/>
        <circle class="st0" cx="47.54" cy="233.39" r="6.06"/>
        <circle class="st0" cx="101.11" cy="222.96" r="6.06"/>
        <circle class="st0" cx="154.67" cy="212.52" r="6.06"/>
        <circle class="st0" cx="208.23" cy="202.09" r="6.06"/>
        <circle class="st0" cx="261.8" cy="191.66" r="6.06"/>
        <circle class="st0" cx="315.36" cy="181.22" r="6.06"/>
        <circle class="st0" cx="368.91" cy="170.79" r="6.06"/>
        <circle class="st0" cx="422.48" cy="160.36" r="6.06"/>
        <circle class="st0" cx="476.04" cy="149.92" r="6.06"/>
        <circle class="st0" cx="529.6" cy="139.49" r="6.06"/>
        <circle class="st0" cx="583.17" cy="129.05" r="6.06"/>
        <circle class="st0" cx="636.73" cy="118.62" r="6.06"/>
        <circle class="st0" cx="690.29" cy="108.18" r="6.06"/>
        <circle class="st0" cx="743.86" cy="97.75" r="6.06"/>
        <circle class="st0" cx="797.41" cy="87.32" r="6.06"/>
        <circle class="st0" cx="-24.31" cy="291.19" r="6.06"/>
        <circle class="st0" cx="29.25" cy="280.75" r="6.06"/>
        <circle class="st0" cx="82.83" cy="270.33" r="6.06" transform="translate(-195.93 317.59) rotate(-82.59)"/>
        <circle class="st0" cx="136.38" cy="259.88" r="6.06"/>
        <circle class="st0" cx="189.94" cy="249.45" r="6.06"/>
        <circle class="st0" cx="243.51" cy="239.02" r="6.06"/>
        <circle class="st0" cx="297.07" cy="228.58" r="6.06"/>
        <circle class="st0" cx="350.63" cy="218.15" r="6.06"/>
        <circle class="st0" cx="404.19" cy="207.72" r="6.06"/>
        <circle class="st0" cx="457.75" cy="197.28" r="6.06"/>
        <circle class="st0" cx="511.31" cy="186.85" r="6.06"/>
        <circle class="st0" cx="564.87" cy="176.41" r="6.06"/>
        <circle class="st0" cx="618.44" cy="165.98" r="6.06"/>
        <circle class="st0" cx="672" cy="155.55" r="6.06"/>
        <circle class="st0" cx="725.56" cy="145.11" r="6.06"/>
        <circle class="st0" cx="779.13" cy="134.68" r="6.06"/>
        <circle class="st0" cx="832.68" cy="124.25" r="6.06"/>
        <circle class="st0" cx="-42.71" cy="340.82" r="6.06"/>
        <circle class="st0" cx="10.84" cy="330.39" r="6.06"/>
        <circle class="st0" cx="64.41" cy="319.95" r="6.06"/>
        <circle class="st0" cx="117.97" cy="309.52" r="6.06"/>
        <circle class="st0" cx="171.53" cy="299.09" r="6.06"/>
        <circle class="st0" cx="225.1" cy="288.65" r="6.06"/>
        <circle class="st0" cx="278.66" cy="278.22" r="6.06"/>
        <circle class="st0" cx="332.22" cy="267.78" r="6.06"/>
        <circle class="st0" cx="385.78" cy="257.35" r="6.06"/>
        <circle class="st0" cx="439.34" cy="246.92" r="6.06"/>
        <circle class="st0" cx="492.9" cy="236.48" r="6.06"/>
        <circle class="st0" cx="546.47" cy="226.05" r="6.06"/>
        <circle class="st0" cx="600.03" cy="215.62" r="6.06"/>
        <circle class="st0" cx="653.59" cy="205.18" r="6.06"/>
        <circle class="st0" cx="707.16" cy="194.75" r="6.06"/>
        <circle class="st0" cx="760.72" cy="184.31" r="6.06"/>
        <circle class="st0" cx="814.27" cy="173.88" r="6.06"/>
        <circle class="st0" cx="-7.45" cy="377.75" r="6.06"/>
        <circle class="st0" cx="46.12" cy="367.32" r="6.06"/>
        <circle class="st0" cx="99.7" cy="356.89" r="6.06" transform="translate(-267.08 409.7) rotate(-82.59)"/>
        <circle class="st0" cx="153.24" cy="346.45" r="6.06"/>
        <circle class="st0" cx="206.8" cy="336.01" r="6.06"/>
        <circle class="st0" cx="260.37" cy="325.58" r="6.06"/>
        <circle class="st0" cx="313.93" cy="315.15" r="6.06"/>
        <circle class="st0" cx="367.49" cy="304.71" r="6.06"/>
        <circle class="st0" cx="421.05" cy="294.28" r="6.06"/>
        <circle class="st0" cx="474.61" cy="283.85" r="6.06"/>
        <circle class="st0" cx="528.17" cy="273.41" r="6.06"/>
        <circle class="st0" cx="581.74" cy="262.98" r="6.06"/>
        <circle class="st0" cx="635.3" cy="252.54" r="6.06"/>
        <circle class="st0" cx="688.86" cy="242.11" r="6.06"/>
        <circle class="st0" cx="742.43" cy="231.67" r="6.06"/>
        <circle class="st0" cx="795.99" cy="221.24" r="6.06"/>
        <circle class="st0" cx="849.54" cy="210.81" r="6.06"/>
        <circle class="st0" cx="-25.85" cy="427.38" r="6.06"/>
        <circle class="st0" cx="27.71" cy="416.95" r="6.06"/>
        <circle class="st0" cx="81.27" cy="406.52" r="6.06"/>
        <circle class="st0" cx="134.83" cy="396.08" r="6.06"/>
        <circle class="st0" cx="188.4" cy="385.65" r="6.06"/>
        <circle class="st0" cx="241.96" cy="375.22" r="6.06"/>
        <circle class="st0" cx="295.52" cy="364.78" r="6.06"/>
        <circle class="st0" cx="349.09" cy="354.35" r="6.06"/>
        <circle class="st0" cx="402.64" cy="343.91" r="6.06"/>
        <circle class="st0" cx="456.2" cy="333.48" r="6.06"/>
        <circle class="st0" cx="509.77" cy="323.05" r="6.06"/>
        <circle class="st0" cx="563.33" cy="312.61" r="6.06"/>
        <circle class="st0" cx="616.89" cy="302.18" r="6.06"/>
        <circle class="st0" cx="670.45" cy="291.74" r="6.06"/>
        <circle class="st0" cx="724.02" cy="281.31" r="6.06"/>
        <circle class="st0" cx="777.58" cy="270.88" r="6.06"/>
        <circle class="st0" cx="831.13" cy="260.44" r="6.06"/>
        <circle class="st0" cx="9.41" cy="464.31" r="6.06"/>
        <circle class="st0" cx="62.98" cy="453.88" r="6.06"/>
        <circle class="st0" cx="116.55" cy="443.46" r="6.06" transform="translate(-338.24 501.81) rotate(-82.59)"/>
        <circle class="st0" cx="170.1" cy="433.01" r="6.06"/>
        <circle class="st0" cx="223.67" cy="422.58" r="6.06"/>
        <circle class="st0" cx="277.23" cy="412.14" r="6.06"/>
        <circle class="st0" cx="330.79" cy="401.71" r="6.06"/>
        <circle class="st0" cx="384.36" cy="391.27" r="6.06"/>
        <circle class="st0" cx="437.91" cy="380.84" r="6.06"/>
        <circle class="st0" cx="491.47" cy="370.41" r="6.06"/>
        <circle class="st0" cx="545.04" cy="359.97" r="6.06"/>
        <circle class="st0" cx="598.6" cy="349.54" r="6.06"/>
        <circle class="st0" cx="652.16" cy="339.11" r="6.06"/>
        <circle class="st0" cx="705.73" cy="328.67" r="6.06"/>
        <circle class="st0" cx="759.29" cy="318.24" r="6.06"/>
        <circle class="st0" cx="812.85" cy="307.8" r="6.06"/>
        <circle class="st0" cx="866.41" cy="297.37" r="6.06"/>
        <circle class="st0" cx="-8.98" cy="513.95" r="6.06"/>
        <circle class="st0" cx="44.57" cy="503.51" r="6.06"/>
        <circle class="st0" cx="98.13" cy="493.08" r="6.06"/>
        <circle class="st0" cx="151.69" cy="482.65" r="6.06"/>
        <circle class="st0" cx="205.26" cy="472.21" r="6.06"/>
        <circle class="st0" cx="258.82" cy="461.78" r="6.06"/>
        <circle class="st0" cx="312.38" cy="451.34" r="6.06"/>
        <circle class="st0" cx="365.95" cy="440.91" r="6.06"/>
        <circle class="st0" cx="419.5" cy="430.48" r="6.06"/>
        <circle class="st0" cx="473.06" cy="420.04" r="6.06"/>
        <circle class="st0" cx="526.63" cy="409.61" r="6.06"/>
        <circle class="st0" cx="580.19" cy="399.18" r="6.06"/>
        <circle class="st0" cx="633.75" cy="388.74" r="6.06"/>
        <circle class="st0" cx="687.32" cy="378.31" r="6.06"/>
        <circle class="st0" cx="740.88" cy="367.87" r="6.06"/>
        <circle class="st0" cx="794.44" cy="357.44" r="6.06"/>
        <circle class="st0" cx="848" cy="347.01" r="6.06"/>
        <circle class="st0" cx="26.28" cy="550.88" r="6.06"/>
        <circle class="st0" cx="79.84" cy="540.44" r="6.06"/>
        <circle class="st0" cx="133.41" cy="530.03" r="6.06" transform="translate(-409.4 593.93) rotate(-82.59)"/>
        <circle class="st0" cx="186.97" cy="519.57" r="6.06"/>
        <circle class="st0" cx="240.53" cy="509.14" r="6.06"/>
        <circle class="st0" cx="294.09" cy="498.71" r="6.06"/>
        <circle class="st0" cx="347.66" cy="488.27" r="6.06"/>
        <circle class="st0" cx="401.22" cy="477.84" r="6.06"/>
        <circle class="st0" cx="454.77" cy="467.41" r="6.06"/>
        <circle class="st0" cx="508.34" cy="456.97" r="6.06"/>
        <circle class="st0" cx="561.9" cy="446.54" r="6.06"/>
        <circle class="st0" cx="615.46" cy="436.1" r="6.06"/>
        <circle class="st0" cx="669.03" cy="425.67" r="6.06"/>
        <circle class="st0" cx="722.59" cy="415.23" r="6.06"/>
        <circle class="st0" cx="776.15" cy="404.8" r="6.06"/>
        <circle class="st0" cx="829.71" cy="394.37" r="6.06"/>
        <circle class="st0" cx="883.27" cy="383.93" r="6.06"/>
        <circle class="st0" cx="7.88" cy="600.51" r="6.06"/>
        <circle class="st0" cx="61.43" cy="590.08" r="6.06"/>
        <circle class="st0" cx="114.99" cy="579.64" r="6.06"/>
        <circle class="st0" cx="168.56" cy="569.21" r="6.06"/>
        <circle class="st0" cx="222.12" cy="558.78" r="6.06"/>
        <circle class="st0" cx="275.68" cy="548.34" r="6.06"/>
        <circle class="st0" cx="329.25" cy="537.91" r="6.06"/>
        <circle class="st0" cx="382.81" cy="527.47" r="6.06"/>
        <circle class="st0" cx="436.36" cy="517.04" r="6.06"/>
        <circle class="st0" cx="489.93" cy="506.61" r="6.06"/>
        <circle class="st0" cx="543.49" cy="496.17" r="6.06"/>
        <circle class="st0" cx="597.05" cy="485.74" r="6.06"/>
        <circle class="st0" cx="650.62" cy="475.3" r="6.06"/>
        <circle class="st0" cx="704.18" cy="464.87" r="6.06"/>
        <circle class="st0" cx="757.74" cy="454.44" r="6.06"/>
        <circle class="st0" cx="811.31" cy="444" r="6.06"/>
        <circle class="st0" cx="864.86" cy="433.57" r="6.06"/>
        <circle class="st0" cx="43.14" cy="637.44" r="6.06"/>
        <circle class="st0" cx="96.7" cy="627" r="6.06"/>
        <circle class="st0" cx="150.28" cy="616.59" r="6.06" transform="translate(-480.55 686.05) rotate(-82.59)"/>
        <circle class="st0" cx="203.83" cy="606.14" r="6.06"/>
        <circle class="st0" cx="257.39" cy="595.7" r="6.06"/>
        <circle class="st0" cx="310.96" cy="585.27" r="6.06"/>
        <circle class="st0" cx="364.52" cy="574.83" r="6.06"/>
        <circle class="st0" cx="418.08" cy="564.4" r="6.06"/>
        <circle class="st0" cx="471.63" cy="553.97" r="6.06"/>
        <circle class="st0" cx="525.2" cy="543.53" r="6.06"/>
        <circle class="st0" cx="578.76" cy="533.1" r="6.06"/>
        <circle class="st0" cx="632.32" cy="522.67" r="6.06"/>
        <circle class="st0" cx="685.89" cy="512.23" r="6.06"/>
        <circle class="st0" cx="739.45" cy="501.8" r="6.06"/>
        <circle class="st0" cx="793.01" cy="491.36" r="6.06"/>
        <circle class="st0" cx="846.58" cy="480.93" r="6.06"/>
        <circle class="st0" cx="900.13" cy="470.5" r="6.06"/>
        <circle class="st0" cx="24.74" cy="687.07" r="6.06"/>
        <circle class="st0" cx="78.29" cy="676.64" r="6.06"/>
        <circle class="st0" cx="131.86" cy="666.21" r="6.06"/>
        <circle class="st0" cx="185.42" cy="655.77" r="6.06"/>
        <circle class="st0" cx="238.98" cy="645.34" r="6.06"/>
        <circle class="st0" cx="292.55" cy="634.9" r="6.06"/>
        <circle class="st0" cx="346.11" cy="624.47" r="6.06"/>
        <circle class="st0" cx="399.67" cy="614.04" r="6.06"/>
        <circle class="st0" cx="453.23" cy="603.6" r="6.06"/>
        <circle class="st0" cx="506.79" cy="593.17" r="6.06"/>
        <circle class="st0" cx="560.35" cy="582.74" r="6.06"/>
        <circle class="st0" cx="613.92" cy="572.3" r="6.06"/>
        <circle class="st0" cx="667.48" cy="561.87" r="6.06"/>
        <circle class="st0" cx="721.04" cy="551.43" r="6.06"/>
        <circle class="st0" cx="774.6" cy="541" r="6.06"/>
        <circle class="st0" cx="828.17" cy="530.57" r="6.06"/>
        <circle class="st0" cx="881.72" cy="520.13" r="6.06"/>
        <circle class="st0" cx="60" cy="724" r="6.06"/>
        <circle class="st0" cx="113.56" cy="713.57" r="6.06"/>
        <circle class="st0" cx="167.14" cy="703.16" r="6.06" transform="translate(-551.71 778.16) rotate(-82.59)"/>
        <circle class="st0" cx="220.69" cy="692.7" r="6.06"/>
        <circle class="st0" cx="274.25" cy="682.27" r="6.06"/>
        <circle class="st0" cx="327.82" cy="671.83" r="6.06"/>
        <circle class="st0" cx="381.38" cy="661.4" r="6.06"/>
        <circle class="st0" cx="434.94" cy="650.96" r="6.06"/>
        <circle class="st0" cx="488.5" cy="640.53" r="6.06"/>
        <circle class="st0" cx="542.06" cy="630.1" r="6.06"/>
        <circle class="st0" cx="595.62" cy="619.66" r="6.06"/>
        <circle class="st0" cx="649.19" cy="609.23" r="6.06"/>
        <circle class="st0" cx="702.75" cy="598.79" r="6.06"/>
        <circle class="st0" cx="756.31" cy="588.36" r="6.06"/>
        <circle class="st0" cx="809.88" cy="577.93" r="6.06"/>
        <circle class="st0" cx="863.44" cy="567.49" r="6.06"/>
        <circle class="st0" cx="916.99" cy="557.06" r="6.06"/>
        <circle class="st0" cx="41.6" cy="773.64" r="6.06"/>
        <circle class="st0" cx="95.16" cy="763.2" r="6.06"/>
        <circle class="st0" cx="148.72" cy="752.77" r="6.06"/>
        <circle class="st0" cx="202.28" cy="742.33" r="6.06"/>
        <circle class="st0" cx="255.85" cy="731.9" r="6.06"/>
        <circle class="st0" cx="309.41" cy="721.47" r="6.06"/>
        <circle class="st0" cx="362.97" cy="711.03" r="6.06"/>
        <circle class="st0" cx="416.53" cy="700.6" r="6.06"/>
        <circle class="st0" cx="470.09" cy="690.17" r="6.06"/>
        <circle class="st0" cx="523.65" cy="679.73" r="6.06"/>
        <circle class="st0" cx="577.21" cy="669.3" r="6.06"/>
        <circle class="st0" cx="630.78" cy="658.86" r="6.06"/>
        <circle class="st0" cx="684.34" cy="648.43" r="6.06"/>
        <circle class="st0" cx="737.9" cy="638" r="6.06"/>
        <circle class="st0" cx="791.47" cy="627.56" r="6.06"/>
        <circle class="st0" cx="845.03" cy="617.13" r="6.06"/>
        <circle class="st0" cx="898.58" cy="606.7" r="6.06"/>
        <circle class="st0" cx="76.86" cy="810.56" r="6.06"/>
        <circle class="st0" cx="130.43" cy="800.13" r="6.06"/>
        <circle class="st0" cx="184.01" cy="789.73" r="6.06" transform="translate(-622.87 870.29) rotate(-82.59)"/>
        <circle class="st0" cx="237.55" cy="779.26" r="6.06"/>
        <circle class="st0" cx="291.12" cy="768.83" r="6.06"/>
        <circle class="st0" cx="344.68" cy="758.39" r="6.06"/>
        <circle class="st0" cx="398.24" cy="747.96" r="6.06"/>
        <circle class="st0" cx="451.81" cy="737.53" r="6.06"/>
        <circle class="st0" cx="505.36" cy="727.09" r="6.06"/>
        <circle class="st0" cx="558.92" cy="716.66" r="6.06"/>
        <circle class="st0" cx="612.49" cy="706.23" r="6.06"/>
        <circle class="st0" cx="666.05" cy="695.79" r="6.06"/>
        <circle class="st0" cx="719.61" cy="685.36" r="6.06"/>
        <circle class="st0" cx="773.18" cy="674.92" r="6.06"/>
        <circle class="st0" cx="826.74" cy="664.49" r="6.06"/>
        <circle class="st0" cx="880.3" cy="654.06" r="6.06"/>
        <circle class="st0" cx="933.86" cy="643.62" r="6.06"/>
      </g>
    </g>
  </g>
</svg>