<?xml version="1.0" encoding="UTF-8"?>
<svg id="_격리_모드" xmlns="http://www.w3.org/2000/svg" version="1.1" viewBox="0 0 828.59 811.41">
  <!-- Generator: Adobe Illustrator 30.1.0, SVG Export Plug-In . SVG Version: 2.1.1 Build 136)  -->
  <defs>
    <style>
      .st0 {
        stroke: #9fd9f6;
        stroke-miterlimit: 10;
        stroke-width: 3px;
      }

      .st0, .st1 {
        fill: #e4007f;
      }
    </style>
  </defs>
  <path class="st0" d="M904.49,388.63h-.03.03Z"/>
  <path class="st1" d="M208.8,685.06c-15.69,0-31.22-4.82-44.45-14.19-21.18-15-33.3-39.44-32.43-65.37l-6.05-118.39-84.08-59.1c-26.5-16.65-39.95-46.2-35.1-77.12,4.86-30.92,26.72-54.92,57.05-62.65l191.41-41.09,79.42-117.77c12.96-17.51,32.83-28.74,54.51-30.82,21.68-2.09,43.32,5.18,59.37,19.9l105.5,94.29,196.27,9.68c31.25,1.82,57.27,21.23,67.91,50.67,10.64,29.44,3.05,61-19.81,82.38l-61.14,75.9,6.37,115.48c5.78,25.3-1.48,51.6-19.43,70.35-17.94,18.75-43.89,27.15-69.42,22.51l-214.63-39.15-203.29,79.21c-9.08,3.54-18.56,5.28-27.99,5.28h0Z"/>
  <circle class="st1" cx="585.06" cy="214.52" r="57.19"/>
  <circle class="st1" cx="591.07" cy="104.57" r="35.87"/>
  <circle class="st1" cx="550.61" cy="36.79" r="27.11"/>
</svg>