<?xml version="1.0" encoding="UTF-8"?>
<svg id="_격리_모드" xmlns="http://www.w3.org/2000/svg" version="1.1" xmlns:xlink="http://www.w3.org/1999/xlink" viewBox="0 0 828.59 799.23">
  <!-- Generator: Adobe Illustrator 30.1.0, SVG Export Plug-In . SVG Version: 2.1.1 Build 136)  -->
  <defs>
    <style>
      .st0 {
        fill: #00836a;
      }

      .st1 {
        fill: none;
        stroke: #9fd9f6;
        stroke-miterlimit: 10;
        stroke-width: 3px;
      }

      .st2 {
        clip-path: url(#clippath);
      }
    </style>
    <clipPath id="clippath">
      <path class="st0" d="M784.09,607.7c-135.12-26.51-221.91-14.68-276.17,90.2-59.62-117.3-209.18-95.5-300.61,1.65-10.63-116.03-69.23-163.73-170.85-177.67,63.35-85.83,65.87-162.55-6.88-212.91,136.11,5.92,149.15-108.49,133.6-162.06,162.63,46.42,215.81,46.42,238.37-69.61,17.92,30.29,38.6,54.38,61.21,73.25,7.89-11.56,21.16-19.15,36.21-19.15,24.19,0,43.81,19.61,43.81,43.81,0,6.32-1.35,12.32-3.76,17.74,73.75,25.46,158.11,18.63,229.96-4.71-19.41,75.36-60.05,156.27,49.66,196.55-102.6,115.52-34.55,222.91-34.55,222.91ZM492.64,101.99c13.64,0,24.69-11.05,24.69-24.69s-11.05-24.69-24.69-24.69-24.69,11.05-24.69,24.69,11.05,24.69,24.69,24.69Z"/>
    </clipPath>
  </defs>
  <path class="st1" d="M904.49,390.24s-.02,0-.03,0c0,0,0,0,0,0h.02Z"/>
  <g>
    <path class="st0" d="M784.09,607.7c-135.12-26.51-221.91-14.68-276.17,90.2-59.62-117.3-209.18-95.5-300.61,1.65-10.63-116.03-69.23-163.73-170.85-177.67,63.35-85.83,65.87-162.55-6.88-212.91,136.11,5.92,149.15-108.49,133.6-162.06,162.63,46.42,215.81,46.42,238.37-69.61,17.92,30.29,38.6,54.38,61.21,73.25,7.89-11.56,21.16-19.15,36.21-19.15,24.19,0,43.81,19.61,43.81,43.81,0,6.32-1.35,12.32-3.76,17.74,73.75,25.46,158.11,18.63,229.96-4.71-19.41,75.36-60.05,156.27,49.66,196.55-102.6,115.52-34.55,222.91-34.55,222.91ZM492.64,101.99c13.64,0,24.69-11.05,24.69-24.69s-11.05-24.69-24.69-24.69-24.69,11.05-24.69,24.69,11.05,24.69,24.69,24.69Z"/>
    <g class="st2">
      <rect class="st0" x="-439.7" y="-51.89" width="1735.67" height="920.21"/>
      <g>
        <circle class="st0" cx="-43.03" cy="16.16" r="6.33"/>
        <circle class="st0" cx="13.99" cy="16.16" r="6.33"/>
        <circle class="st0" cx="71.01" cy="16.16" r="6.33"/>
        <circle class="st0" cx="128.04" cy="16.16" r="6.33"/>
        <circle class="st0" cx="185.06" cy="16.16" r="6.33"/>
        <circle class="st0" cx="242.08" cy="16.16" r="6.33"/>
        <circle class="st0" cx="299.11" cy="16.16" r="6.33"/>
        <circle class="st0" cx="356.13" cy="16.16" r="6.33" transform="translate(237.47 352.33) rotate(-73.15)"/>
        <circle class="st0" cx="413.15" cy="16.16" r="6.33"/>
        <circle class="st0" cx="470.18" cy="16.16" r="6.33"/>
        <circle class="st0" cx="527.2" cy="16.16" r="6.33"/>
        <circle class="st0" cx="584.22" cy="16.16" r="6.33"/>
        <circle class="st0" cx="641.25" cy="16.16" r="6.33"/>
        <circle class="st0" cx="698.27" cy="16.16" r="6.33"/>
        <circle class="st0" cx="755.29" cy="16.16" r="6.33"/>
        <circle class="st0" cx="812.31" cy="16.16" r="6.33"/>
        <circle class="st0" cx="869.34" cy="16.16" r="6.33" transform="translate(630.59 852.23) rotate(-75.13)"/>
        <circle class="st0" cx="-14.23" cy="61.09" r="6.33"/>
        <circle class="st0" cx="42.79" cy="61.09" r="6.33"/>
        <circle class="st0" cx="99.81" cy="61.09" r="6.33" transform="translate(23.53 149.83) rotate(-80.78)"/>
        <circle class="st0" cx="156.84" cy="61.09" r="6.33"/>
        <circle class="st0" cx="213.86" cy="61.09" r="6.33"/>
        <circle class="st0" cx="270.88" cy="61.09" r="6.33"/>
        <circle class="st0" cx="327.91" cy="61.09" r="6.33"/>
        <circle class="st0" cx="384.93" cy="61.09" r="6.33"/>
        <circle class="st0" cx="441.95" cy="61.09" r="6.33"/>
        <circle class="st0" cx="498.97" cy="61.09" r="6.33"/>
        <circle class="st0" cx="556" cy="61.09" r="6.33"/>
        <circle class="st0" cx="613.02" cy="61.09" r="6.33"/>
        <circle class="st0" cx="670.04" cy="61.09" r="6.33"/>
        <circle class="st0" cx="727.07" cy="61.09" r="6.33"/>
        <circle class="st0" cx="784.09" cy="61.09" r="6.33"/>
        <circle class="st0" cx="841.11" cy="61.09" r="6.33"/>
        <circle class="st0" cx="898.14" cy="61.09" r="6.33"/>
        <circle class="st0" cx="-43.03" cy="108.32" r="6.33"/>
        <circle class="st0" cx="13.99" cy="108.32" r="6.33"/>
        <circle class="st0" cx="71.01" cy="108.32" r="6.33"/>
        <circle class="st0" cx="128.04" cy="108.32" r="6.33"/>
        <circle class="st0" cx="185.06" cy="108.32" r="6.33"/>
        <circle class="st0" cx="242.08" cy="108.32" r="6.33"/>
        <circle class="st0" cx="299.11" cy="108.32" r="6.33"/>
        <circle class="st0" cx="356.13" cy="108.32" r="6.33" transform="translate(119.77 395.89) rotate(-67.5)"/>
        <circle class="st0" cx="413.15" cy="108.32" r="6.33"/>
        <circle class="st0" cx="470.18" cy="108.32" r="6.33"/>
        <circle class="st0" cx="527.2" cy="108.32" r="6.33"/>
        <circle class="st0" cx="584.22" cy="108.32" r="6.33"/>
        <circle class="st0" cx="641.25" cy="108.32" r="6.33"/>
        <circle class="st0" cx="698.27" cy="108.32" r="6.33"/>
        <circle class="st0" cx="755.29" cy="108.32" r="6.33"/>
        <circle class="st0" cx="812.31" cy="108.32" r="6.33"/>
        <circle class="st0" cx="869.34" cy="108.32" r="6.33" transform="translate(564.19 929.52) rotate(-76.72)"/>
        <circle class="st0" cx="-14.23" cy="153.25" r="6.33"/>
        <circle class="st0" cx="42.79" cy="153.25" r="6.33"/>
        <circle class="st0" cx="99.81" cy="153.25" r="6.33" transform="translate(-67.44 227.23) rotate(-80.78)"/>
        <circle class="st0" cx="156.84" cy="153.25" r="6.33"/>
        <circle class="st0" cx="213.86" cy="153.25" r="6.33"/>
        <circle class="st0" cx="270.88" cy="153.25" r="6.33"/>
        <circle class="st0" cx="327.91" cy="153.25" r="6.33"/>
        <circle class="st0" cx="384.93" cy="153.25" r="6.33"/>
        <circle class="st0" cx="441.95" cy="153.25" r="6.33"/>
        <circle class="st0" cx="498.97" cy="153.25" r="6.33"/>
        <circle class="st0" cx="556" cy="153.25" r="6.33"/>
        <circle class="st0" cx="613.02" cy="153.25" r="6.33"/>
        <circle class="st0" cx="670.04" cy="153.25" r="6.33"/>
        <circle class="st0" cx="727.07" cy="153.25" r="6.33"/>
        <circle class="st0" cx="784.09" cy="153.25" r="6.33"/>
        <circle class="st0" cx="841.11" cy="153.25" r="6.33"/>
        <circle class="st0" cx="898.14" cy="153.25" r="6.33"/>
        <circle class="st0" cx="-43.03" cy="200.48" r="6.33"/>
        <circle class="st0" cx="13.99" cy="200.48" r="6.33"/>
        <circle class="st0" cx="71.01" cy="200.48" r="6.33"/>
        <circle class="st0" cx="128.04" cy="200.48" r="6.33"/>
        <circle class="st0" cx="185.06" cy="200.48" r="6.33"/>
        <circle class="st0" cx="242.08" cy="200.48" r="6.33"/>
        <circle class="st0" cx="299.11" cy="200.48" r="6.33"/>
        <circle class="st0" cx="356.13" cy="200.48" r="6.33" transform="translate(34.63 452.78) rotate(-67.5)"/>
        <circle class="st0" cx="413.15" cy="200.48" r="6.33"/>
        <circle class="st0" cx="470.18" cy="200.48" r="6.33"/>
        <circle class="st0" cx="527.2" cy="200.48" r="6.33"/>
        <circle class="st0" cx="584.22" cy="200.48" r="6.33"/>
        <circle class="st0" cx="641.25" cy="200.48" r="6.33"/>
        <circle class="st0" cx="698.27" cy="200.48" r="6.33"/>
        <circle class="st0" cx="755.29" cy="200.48" r="6.33"/>
        <circle class="st0" cx="812.31" cy="200.48" r="6.33"/>
        <circle class="st0" cx="869.34" cy="200.48" r="6.33" transform="translate(474.49 1000.51) rotate(-76.72)"/>
        <circle class="st0" cx="-14.23" cy="245.41" r="6.33"/>
        <circle class="st0" cx="42.79" cy="245.41" r="6.33"/>
        <circle class="st0" cx="99.81" cy="245.41" r="6.33"/>
        <circle class="st0" cx="156.84" cy="245.41" r="6.33"/>
        <circle class="st0" cx="213.86" cy="245.41" r="6.33"/>
        <circle class="st0" cx="270.88" cy="245.41" r="6.33"/>
        <circle class="st0" cx="327.91" cy="245.41" r="6.33"/>
        <circle class="st0" cx="384.93" cy="245.41" r="6.33"/>
        <circle class="st0" cx="441.95" cy="245.41" r="6.33"/>
        <circle class="st0" cx="498.97" cy="245.41" r="6.33"/>
        <circle class="st0" cx="556" cy="245.41" r="6.33"/>
        <circle class="st0" cx="613.02" cy="245.41" r="6.33"/>
        <circle class="st0" cx="670.04" cy="245.41" r="6.33"/>
        <circle class="st0" cx="727.07" cy="245.41" r="6.33"/>
        <circle class="st0" cx="784.09" cy="245.41" r="6.33"/>
        <circle class="st0" cx="841.11" cy="245.41" r="6.33"/>
        <circle class="st0" cx="898.14" cy="245.41" r="6.33"/>
        <circle class="st0" cx="-43.03" cy="292.63" r="6.33"/>
        <circle class="st0" cx="13.99" cy="292.63" r="6.33"/>
        <circle class="st0" cx="71.01" cy="292.63" r="6.33"/>
        <circle class="st0" cx="128.04" cy="292.63" r="6.33"/>
        <circle class="st0" cx="185.06" cy="292.63" r="6.33"/>
        <circle class="st0" cx="242.08" cy="292.63" r="6.33"/>
        <circle class="st0" cx="299.11" cy="292.63" r="6.33"/>
        <circle class="st0" cx="356.13" cy="292.63" r="6.33" transform="translate(10.24 597.29) rotate(-80.78)"/>
        <circle class="st0" cx="413.15" cy="292.63" r="6.33"/>
        <circle class="st0" cx="470.18" cy="292.63" r="6.33"/>
        <circle class="st0" cx="527.2" cy="292.63" r="6.33"/>
        <circle class="st0" cx="584.22" cy="292.63" r="6.33"/>
        <circle class="st0" cx="641.25" cy="292.63" r="6.33"/>
        <circle class="st0" cx="698.27" cy="292.63" r="6.33"/>
        <circle class="st0" cx="755.29" cy="292.63" r="6.33"/>
        <circle class="st0" cx="812.31" cy="292.63" r="6.33"/>
        <circle class="st0" cx="869.34" cy="292.63" r="6.33" transform="translate(266.31 983.81) rotate(-67.5)"/>
        <circle class="st0" cx="-14.23" cy="337.56" r="6.33"/>
        <circle class="st0" cx="42.79" cy="337.56" r="6.33"/>
        <circle class="st0" cx="99.81" cy="337.56" r="6.33"/>
        <circle class="st0" cx="156.84" cy="337.56" r="6.33"/>
        <circle class="st0" cx="213.86" cy="337.56" r="6.33"/>
        <circle class="st0" cx="270.88" cy="337.56" r="6.33"/>
        <circle class="st0" cx="327.91" cy="337.56" r="6.33"/>
        <circle class="st0" cx="384.93" cy="337.56" r="6.33"/>
        <circle class="st0" cx="441.95" cy="337.56" r="6.33"/>
        <circle class="st0" cx="498.97" cy="337.56" r="6.33"/>
        <circle class="st0" cx="556" cy="337.56" r="6.33"/>
        <circle class="st0" cx="613.02" cy="337.56" r="6.33"/>
        <circle class="st0" cx="670.04" cy="337.56" r="6.33"/>
        <circle class="st0" cx="727.07" cy="337.56" r="6.33"/>
        <circle class="st0" cx="784.09" cy="337.56" r="6.33"/>
        <circle class="st0" cx="841.11" cy="337.56" r="6.33"/>
        <circle class="st0" cx="898.14" cy="337.56" r="6.33"/>
        <circle class="st0" cx="-43.03" cy="384.79" r="6.33"/>
        <circle class="st0" cx="13.99" cy="384.79" r="6.33"/>
        <circle class="st0" cx="71.01" cy="384.79" r="6.33"/>
        <circle class="st0" cx="128.04" cy="384.79" r="6.33"/>
        <circle class="st0" cx="185.06" cy="384.79" r="6.33"/>
        <circle class="st0" cx="242.08" cy="384.79" r="6.33"/>
        <circle class="st0" cx="299.11" cy="384.79" r="6.33"/>
        <circle class="st0" cx="356.13" cy="384.79" r="6.33" transform="translate(-80.73 674.69) rotate(-80.78)"/>
        <circle class="st0" cx="413.15" cy="384.79" r="6.33"/>
        <circle class="st0" cx="470.18" cy="384.79" r="6.33"/>
        <circle class="st0" cx="527.2" cy="384.79" r="6.33"/>
        <circle class="st0" cx="584.22" cy="384.79" r="6.33"/>
        <circle class="st0" cx="641.25" cy="384.79" r="6.33"/>
        <circle class="st0" cx="698.27" cy="384.79" r="6.33"/>
        <circle class="st0" cx="755.29" cy="384.79" r="6.33"/>
        <circle class="st0" cx="812.31" cy="384.79" r="6.33"/>
        <circle class="st0" cx="869.34" cy="384.79" r="6.33" transform="translate(181.16 1040.71) rotate(-67.5)"/>
        <circle class="st0" cx="-14.23" cy="429.72" r="6.33"/>
        <circle class="st0" cx="42.79" cy="429.72" r="6.33"/>
        <circle class="st0" cx="99.81" cy="429.72" r="6.33"/>
        <circle class="st0" cx="156.84" cy="429.72" r="6.33"/>
        <circle class="st0" cx="213.86" cy="429.72" r="6.33"/>
        <circle class="st0" cx="270.88" cy="429.72" r="6.33"/>
        <circle class="st0" cx="327.91" cy="429.72" r="6.33"/>
        <circle class="st0" cx="384.93" cy="429.72" r="6.33"/>
        <circle class="st0" cx="441.95" cy="429.72" r="6.33"/>
        <circle class="st0" cx="498.97" cy="429.72" r="6.33"/>
        <circle class="st0" cx="556" cy="429.72" r="6.33"/>
        <circle class="st0" cx="613.02" cy="429.72" r="6.33"/>
        <circle class="st0" cx="670.04" cy="429.72" r="6.33"/>
        <circle class="st0" cx="727.07" cy="429.72" r="6.33"/>
        <circle class="st0" cx="784.09" cy="429.72" r="6.33"/>
        <circle class="st0" cx="841.11" cy="429.72" r="6.33"/>
        <circle class="st0" cx="898.14" cy="429.72" r="6.33"/>
        <circle class="st0" cx="-43.03" cy="476.95" r="6.33"/>
        <circle class="st0" cx="13.99" cy="476.95" r="6.33"/>
        <circle class="st0" cx="71.01" cy="476.95" r="6.33"/>
        <circle class="st0" cx="128.04" cy="476.95" r="6.33"/>
        <circle class="st0" cx="185.06" cy="476.95" r="6.33"/>
        <circle class="st0" cx="242.08" cy="476.95" r="6.33"/>
        <circle class="st0" cx="299.11" cy="476.95" r="6.33"/>
        <circle class="st0" cx="356.13" cy="476.95" r="6.33" transform="translate(-232.94 391.52) rotate(-45)"/>
        <circle class="st0" cx="413.15" cy="476.95" r="6.33"/>
        <circle class="st0" cx="470.18" cy="476.95" r="6.33"/>
        <circle class="st0" cx="527.2" cy="476.95" r="6.33"/>
        <circle class="st0" cx="584.22" cy="476.95" r="6.33"/>
        <circle class="st0" cx="641.25" cy="476.95" r="6.33"/>
        <circle class="st0" cx="698.27" cy="476.95" r="6.33"/>
        <circle class="st0" cx="755.29" cy="476.95" r="6.33"/>
        <circle class="st0" cx="812.31" cy="476.95" r="6.33"/>
        <circle class="st0" cx="869.34" cy="476.95" r="6.33" transform="translate(236.6 1240.41) rotate(-79.1)"/>
        <circle class="st0" cx="-14.23" cy="521.88" r="6.33"/>
        <circle class="st0" cx="42.79" cy="521.88" r="6.33"/>
        <circle class="st0" cx="99.81" cy="521.88" r="6.33" transform="translate(-427.83 584.45) rotate(-85.93)"/>
        <circle class="st0" cx="156.84" cy="521.88" r="6.33"/>
        <circle class="st0" cx="213.86" cy="521.88" r="6.33"/>
        <circle class="st0" cx="270.88" cy="521.88" r="6.33"/>
        <circle class="st0" cx="327.91" cy="521.88" r="6.33"/>
        <circle class="st0" cx="384.93" cy="521.88" r="6.33"/>
        <circle class="st0" cx="441.95" cy="521.88" r="6.33"/>
        <circle class="st0" cx="498.97" cy="521.88" r="6.33"/>
        <circle class="st0" cx="556" cy="521.88" r="6.33"/>
        <circle class="st0" cx="613.02" cy="521.88" r="6.33"/>
        <circle class="st0" cx="670.04" cy="521.88" r="6.33"/>
        <circle class="st0" cx="727.07" cy="521.88" r="6.33"/>
        <circle class="st0" cx="784.09" cy="521.88" r="6.33"/>
        <circle class="st0" cx="841.11" cy="521.88" r="6.33"/>
        <circle class="st0" cx="898.14" cy="521.88" r="6.33"/>
        <circle class="st0" cx="-43.03" cy="569.11" r="6.33"/>
        <circle class="st0" cx="13.99" cy="569.11" r="6.33"/>
        <circle class="st0" cx="71.01" cy="569.11" r="6.33"/>
        <circle class="st0" cx="128.04" cy="569.11" r="6.33"/>
        <circle class="st0" cx="185.06" cy="569.11" r="6.33"/>
        <circle class="st0" cx="242.08" cy="569.11" r="6.33"/>
        <circle class="st0" cx="299.11" cy="569.11" r="6.33"/>
        <circle class="st0" cx="356.13" cy="569.11" r="6.33" transform="translate(-190.68 179.61) rotate(-22.5)"/>
        <circle class="st0" cx="413.15" cy="569.11" r="6.33"/>
        <circle class="st0" cx="470.18" cy="569.11" r="6.33"/>
        <circle class="st0" cx="527.2" cy="569.11" r="6.33"/>
        <circle class="st0" cx="584.22" cy="569.11" r="6.33"/>
        <circle class="st0" cx="641.25" cy="569.11" r="6.33"/>
        <circle class="st0" cx="698.27" cy="569.11" r="6.33"/>
        <circle class="st0" cx="755.29" cy="569.11" r="6.33"/>
        <circle class="st0" cx="812.31" cy="569.11" r="6.33"/>
        <circle class="st0" cx="869.34" cy="569.11" r="6.33" transform="translate(168.33 1336.07) rotate(-80.78)"/>
        <circle class="st0" cx="-14.23" cy="614.03" r="6.33"/>
        <circle class="st0" cx="42.79" cy="614.03" r="6.33"/>
        <circle class="st0" cx="99.81" cy="614.03" r="6.33" transform="translate(-519.75 670.06) rotate(-85.93)"/>
        <circle class="st0" cx="156.84" cy="614.03" r="6.33"/>
        <circle class="st0" cx="213.86" cy="614.03" r="6.33"/>
        <circle class="st0" cx="270.88" cy="614.03" r="6.33"/>
        <circle class="st0" cx="327.91" cy="614.03" r="6.33"/>
        <circle class="st0" cx="384.93" cy="614.03" r="6.33"/>
        <circle class="st0" cx="441.95" cy="614.03" r="6.33"/>
        <circle class="st0" cx="498.97" cy="614.03" r="6.33"/>
        <circle class="st0" cx="556" cy="614.03" r="6.33"/>
        <circle class="st0" cx="613.02" cy="614.03" r="6.33"/>
        <circle class="st0" cx="670.04" cy="614.03" r="6.33"/>
        <circle class="st0" cx="727.07" cy="614.03" r="6.33"/>
        <circle class="st0" cx="784.09" cy="614.03" r="6.33"/>
        <circle class="st0" cx="841.11" cy="614.03" r="6.33"/>
        <circle class="st0" cx="898.14" cy="614.03" r="6.33"/>
        <circle class="st0" cx="-43.03" cy="661.26" r="6.33"/>
        <circle class="st0" cx="13.99" cy="661.26" r="6.33"/>
        <circle class="st0" cx="71.01" cy="661.26" r="6.33"/>
        <circle class="st0" cx="128.04" cy="661.26" r="6.33"/>
        <circle class="st0" cx="185.06" cy="661.26" r="6.33"/>
        <circle class="st0" cx="242.08" cy="661.26" r="6.33"/>
        <circle class="st0" cx="299.11" cy="661.26" r="6.33"/>
        <circle class="st0" cx="356.13" cy="661.26" r="6.33" transform="translate(-225.94 186.62) rotate(-22.5)"/>
        <circle class="st0" cx="413.15" cy="661.26" r="6.33"/>
        <circle class="st0" cx="470.18" cy="661.26" r="6.33"/>
        <circle class="st0" cx="527.2" cy="661.26" r="6.33"/>
        <circle class="st0" cx="584.22" cy="661.26" r="6.33"/>
        <circle class="st0" cx="641.25" cy="661.26" r="6.33"/>
        <circle class="st0" cx="698.27" cy="661.26" r="6.33"/>
        <circle class="st0" cx="755.29" cy="661.26" r="6.33"/>
        <circle class="st0" cx="812.31" cy="661.26" r="6.33"/>
        <circle class="st0" cx="869.34" cy="661.26" r="6.33" transform="translate(77.37 1413.46) rotate(-80.78)"/>
        <circle class="st0" cx="-14.23" cy="706.19" r="6.33"/>
        <circle class="st0" cx="42.79" cy="706.19" r="6.33"/>
        <circle class="st0" cx="99.81" cy="706.19" r="6.33" transform="translate(-611.67 755.69) rotate(-85.93)"/>
        <circle class="st0" cx="156.84" cy="706.19" r="6.33"/>
        <circle class="st0" cx="213.86" cy="706.19" r="6.33"/>
        <circle class="st0" cx="270.88" cy="706.19" r="6.33"/>
        <circle class="st0" cx="327.91" cy="706.19" r="6.33"/>
        <circle class="st0" cx="384.93" cy="706.19" r="6.33"/>
        <circle class="st0" cx="441.95" cy="706.19" r="6.33"/>
        <circle class="st0" cx="498.97" cy="706.19" r="6.33"/>
        <circle class="st0" cx="556" cy="706.19" r="6.33"/>
        <circle class="st0" cx="613.02" cy="706.19" r="6.33"/>
        <circle class="st0" cx="670.04" cy="706.19" r="6.33"/>
        <circle class="st0" cx="727.07" cy="706.19" r="6.33"/>
        <circle class="st0" cx="784.09" cy="706.19" r="6.33"/>
        <circle class="st0" cx="841.11" cy="706.19" r="6.33"/>
        <circle class="st0" cx="898.14" cy="706.19" r="6.33"/>
        <circle class="st0" cx="-43.03" cy="753.42" r="6.33"/>
        <circle class="st0" cx="13.99" cy="753.42" r="6.33"/>
        <circle class="st0" cx="71.01" cy="753.42" r="6.33"/>
        <circle class="st0" cx="128.04" cy="753.42" r="6.33"/>
        <circle class="st0" cx="185.06" cy="753.42" r="6.33"/>
        <circle class="st0" cx="242.08" cy="753.42" r="6.33"/>
        <circle class="st0" cx="299.11" cy="753.42" r="6.33"/>
        <circle class="st0" cx="356.13" cy="753.42" r="6.33" transform="translate(-261.21 193.64) rotate(-22.5)"/>
        <circle class="st0" cx="413.15" cy="753.42" r="6.33"/>
        <circle class="st0" cx="470.18" cy="753.42" r="6.33"/>
        <circle class="st0" cx="527.2" cy="753.42" r="6.33"/>
        <circle class="st0" cx="584.22" cy="753.42" r="6.33"/>
        <circle class="st0" cx="641.25" cy="753.42" r="6.33"/>
        <circle class="st0" cx="698.27" cy="753.42" r="6.33"/>
        <circle class="st0" cx="755.29" cy="753.42" r="6.33"/>
        <circle class="st0" cx="812.31" cy="753.42" r="6.33"/>
        <circle class="st0" cx="869.34" cy="753.42" r="6.33" transform="translate(-13.6 1490.85) rotate(-80.78)"/>
        <circle class="st0" cx="-14.23" cy="798.35" r="6.33"/>
        <circle class="st0" cx="42.79" cy="798.35" r="6.33"/>
        <circle class="st0" cx="99.81" cy="798.35" r="6.33" transform="translate(-703.6 841.32) rotate(-85.93)"/>
        <circle class="st0" cx="156.84" cy="798.35" r="6.33"/>
        <circle class="st0" cx="213.86" cy="798.35" r="6.33"/>
        <circle class="st0" cx="270.88" cy="798.35" r="6.33"/>
        <circle class="st0" cx="327.91" cy="798.35" r="6.33"/>
        <circle class="st0" cx="384.93" cy="798.35" r="6.33"/>
        <circle class="st0" cx="441.95" cy="798.35" r="6.33"/>
        <circle class="st0" cx="498.97" cy="798.35" r="6.33"/>
        <circle class="st0" cx="556" cy="798.35" r="6.33"/>
        <circle class="st0" cx="613.02" cy="798.35" r="6.33"/>
        <circle class="st0" cx="670.04" cy="798.35" r="6.33"/>
        <circle class="st0" cx="727.07" cy="798.35" r="6.33"/>
        <circle class="st0" cx="784.09" cy="798.35" r="6.33"/>
        <circle class="st0" cx="841.11" cy="798.35" r="6.33"/>
        <circle class="st0" cx="898.14" cy="798.35" r="6.33"/>
      </g>
    </g>
  </g>
</svg>