<?xml version="1.0" encoding="UTF-8"?>
<svg id="_레이어_1" xmlns="http://www.w3.org/2000/svg" xmlns:xlink="http://www.w3.org/1999/xlink" version="1.1" viewBox="0 0 420 360">
  <!-- Generator: Adobe Illustrator 29.0.0, SVG Export Plug-In . SVG Version: 2.1.0 Build 186)  -->
  <defs>
    <style>
      .st0 {
        fill: none;
      }

      .st1 {
        fill: #d42042;
      }

      .st2 {
        fill: #9fd9f6;
      }

      .st3 {
        clip-path: url(#clippath);
      }
    </style>
    <clipPath id="clippath">
      <rect class="st0" width="420" height="360"/>
    </clipPath>
  </defs>
  <path class="st2" d="M420,20v320c-11.05,0-20,8.95-20,20H20c0-11.05-8.95-20-20-20V20c11.05,0,20-8.95,20-20h380c0,11.05,8.95,20,20,20Z"/>
  <g class="st3">
    <path class="st1" d="M474.54,253.27c0-8.15-1.5-15.11-3.98-20.97,10.7-8.81,17.14-22.09,17.14-36.14s-6.34-27.13-16.89-35.93c2.33-5.73,3.73-12.51,3.73-20.39,0-45.81-38.55-69.79-76.63-69.79s-76.63,23.97-76.63,69.79c0,16.18,5.87,27.71,13.66,35.05-7.27,0-13.66,3.56-17.6,9.01h-.73v-1.99c0-5.65-10.23-10.23-10.23-10.23,0,0-10.23,4.58-10.23,10.23,0-5.65-10.23-10.23-10.23-10.23,0,0-10.23,4.58-10.23,10.23v1.99h-132.1c-8.37,0-13.29-5.14-16.06-9.07-1.02-1.44-2.45-1.44-3.46,0-2.77,3.93-7.69,9.07-16.06,9.07h-20.26c-8.37,0-13.29-5.14-16.05-9.07-1.02-1.44-2.45-1.44-3.47,0-2.77,3.93-7.69,9.07-16.06,9.07h-126.64c-1.77,0-3.99,1.19-4.97,2.67l-4.86,7.33c-.98,1.47-.98,3.86,0,5.33l4.86,7.33c.97,1.47,3.2,2.67,4.96,2.67h13.33v51.86h26.84v-18.84h-12.17v-21.01h25.52v30.12H-4.29v-30.12h25.5v21.01h-12.17v18.84h26.85v-51.86h16.25c8.37,0,13.29,5.15,16.06,9.07,1.01,1.45,2.45,1.45,3.47,0,2.77-3.93,7.68-9.07,16.05-9.07h20.26c8.37,0,13.29,5.15,16.06,9.07,1.01,1.45,2.44,1.45,3.46,0,2.77-3.93,7.68-9.07,16.06-9.07h132.1v1.99c0,5.65,10.23,10.24,10.23,10.24,0,0,10.23-4.59,10.23-10.24,0,5.65,10.23,10.24,10.23,10.24,0,0,10.23-4.59,10.23-10.24v-1.99h.73c3.94,5.45,10.33,9.01,17.57,9.01-7.75,7.34-13.63,18.88-13.63,35.05,0,45.82,38.55,69.79,76.63,69.79s76.63-23.97,76.63-69.79l.03-.02ZM356.56,196.56c0-4.56-1.41-8.78-3.82-12.27,1.87.37,3.7.56,5.44.56,15.63,0,23.81-10.43,23.81-20.72,0-11.18-8.6-19.61-20-19.61-4.42,0-7.99,3.58-7.99,8s3.58,8,7.99,8c3.48,0,4,2.27,4,3.62,0,2.87-3.06,4.73-7.81,4.73-5.43,0-20.92-5.33-20.92-29.02s13.39-40.76,31.45-48.14c8.75-3.57,19.04-3.98,26.19-2.4,14,3.09,22.85,18.55,19.17,31.94-2.84,10.34-13.63,16.77-23.56,14.05-3.8-1.03-6.98-3.52-8.76-6.81-1.5-2.78-1.82-5.83-.92-8.6.97-2.99,3.71-5.47,6.83-6.18,3.44-.79,5.6-4.21,4.81-7.66-.78-3.45-4.21-5.6-7.66-4.81-7.46,1.71-13.8,7.48-16.15,14.7-1.99,6.12-1.34,12.74,1.83,18.62,3.42,6.36,9.48,11.13,16.63,13.08,16.9,4.64,34.53-5.69,39.28-23,3.52-12.84-.31-26.34-8.83-35.98,22.08,6.01,40.95,22.55,40.95,51.19,0,23.68-15.49,29.02-20.92,29.02-4.75,0-7.82-1.85-7.82-4.73,0-1.35.52-3.62,4-3.62,4.42,0,8-3.58,8-8s-3.58-8-8-8c-11.4,0-20,8.44-20,19.61,0,10.3,8.18,20.72,23.81,20.72,7.73,0,17.05-3.56,24.39-11.07,6.09,5.75,9.69,13.85,9.69,22.38s-3.77,16.99-10.1,22.76c-7.28-7.22-16.4-10.66-23.99-10.66-15.63,0-23.81,10.42-23.81,20.72,0,11.18,8.59,19.61,20,19.61,4.42,0,8-3.58,8-7.99s-3.58-8-8-8c-3.48,0-4-2.27-4-3.62,0-2.87,3.07-4.72,7.82-4.72,5.42,0,20.92,5.33,20.92,29.01,0,28.64-18.87,45.18-40.95,51.19,8.52-9.63,12.35-23.13,8.83-35.98-4.75-17.32-22.38-27.65-39.28-23-7.15,1.96-13.21,6.73-16.63,13.08-3.18,5.89-3.83,12.51-1.83,18.63,2.35,7.22,8.69,12.99,16.15,14.69,3.45.79,6.88-1.36,7.66-4.81.79-3.44-1.37-6.87-4.81-7.66-3.12-.71-5.86-3.2-6.83-6.19-.9-2.76-.57-5.82.92-8.6,1.77-3.29,4.96-5.77,8.76-6.81,9.93-2.73,20.72,3.71,23.56,14.05,3.67,13.39-5.18,28.85-19.17,31.94-7.15,1.58-17.44,1.18-26.19-2.4-18.07-7.38-31.45-23.55-31.45-48.14s15.49-29.01,20.92-29.01c4.75,0,7.81,1.85,7.81,4.72,0,1.35-.52,3.62-4,3.62-4.42,0-7.99,3.58-7.99,8s3.58,7.99,7.99,7.99c11.4,0,20-8.43,20-19.61,0-10.29-8.18-20.72-23.81-20.72-1.74,0-3.57.19-5.44.56,2.4-3.49,3.82-7.71,3.82-12.27v.02Z"/>
  </g>
  <g>
    <path class="st1" d="M205.03,132.8c.07.71.11,1.38.11,2.02v1.91c0,2.76-.66,5.4-1.96,7.91-1.31,2.51-3.15,4.74-5.52,6.69-2.37,1.95-5.18,3.49-8.44,4.62-3.26,1.13-6.83,1.7-10.72,1.7-5.8,0-10.14-1.31-13-3.93-2.87-2.62-4.3-6.01-4.3-10.19,0-3.4,1.15-6.9,3.45-10.51,2.3-3.61,6.1-6.9,11.41-9.87,5.31-2.97,12.31-5.43,21.02-7.38,8.7-1.95,19.49-2.92,32.37-2.92,3.96,0,7.57.11,10.83.32,3.25.21,6.05.32,8.39.32,2.05,0,3.77-.11,5.15-.32,1.38-.21,2.56-.32,3.56-.32.85,0,1.63.27,2.34.8.71.53,1.06,1.29,1.06,2.28,0,.64-.2,1.15-.58,1.54-.39.39-1.08.66-2.07.8-.99.14-2.32.23-3.98.27-1.66.04-3.77.05-6.32.05-4.95,0-9.08.87-12.37,2.6-3.29,1.73-6.35,4.35-9.18,7.85-2.83,3.5-5.77,7.89-8.81,13.16-3.04,5.27-6.83,11.41-11.36,18.42-1.56,2.41-3.52,5.13-5.89,8.17-2.37,3.04-5.18,5.91-8.44,8.6-3.26,2.69-6.97,4.95-11.14,6.79-4.18,1.84-8.88,2.76-14.12,2.76-1.98,0-4.07-.23-6.26-.69-2.19-.46-4.19-1.2-6-2.23-1.8-1.02-3.29-2.39-4.46-4.09s-1.75-3.78-1.75-6.26c0-1.56.44-2.88,1.33-3.98.88-1.1,2.14-1.64,3.77-1.64,1.13,0,2.07.37,2.81,1.11.74.74,1.11,1.68,1.11,2.81,0,1.06-.35,1.91-1.06,2.55-.71.64-1.52.96-2.44.96-.5,0-.92-.07-1.27-.21.35,3.4,1.95,5.98,4.78,7.75,2.83,1.77,6.33,2.65,10.51,2.65s7.61-.88,10.93-2.65c3.33-1.77,6.42-4.1,9.29-7.01,2.87-2.9,5.57-6.21,8.12-9.92,2.55-3.72,5.08-7.57,7.59-11.57,2.51-4,5.04-7.96,7.59-11.89,2.55-3.93,5.24-7.52,8.07-10.77,2.83-3.25,5.85-6.03,9.07-8.33,3.22-2.3,6.77-3.8,10.67-4.51v-.21c-3.18,0-6.65-.14-10.4-.42-3.75-.28-7.22-.42-10.4-.42-8.92,0-16.82.65-23.72,1.96-6.9,1.31-12.72,3.11-17.46,5.41-4.74,2.3-8.33,5.01-10.77,8.12-2.44,3.11-3.66,6.47-3.66,10.08,0,4.25,1.43,7.45,4.3,9.61,2.87,2.16,6.92,3.24,12.15,3.24,3.68,0,7.04-.55,10.08-1.65,3.04-1.1,5.66-2.55,7.85-4.35,2.19-1.8,3.91-3.87,5.15-6.21,1.24-2.34,1.86-4.74,1.86-7.22v-2.02c0-.71-.04-1.41-.11-2.12h1.27Z"/>
    <path class="st1" d="M242.63,157.78c-.07.76-.28,1.66-.45,2.4-.71,2.69-2.02,5.56-3.93,8.6-1.91,3.04-4.19,5.84-6.85,8.39-2.65,2.55-5.57,4.67-8.76,6.37-3.18,1.7-6.44,2.55-9.77,2.55-3.04,0-5.34-.88-6.9-2.65-1.56-1.77-2.34-4.14-2.34-7.11,0-1.56.39-3.36,1.17-5.41.78-2.05,1.86-4.12,3.24-6.21,1.38-2.09,3.01-4.14,4.88-6.16,1.87-2.02,3.91-3.82,6.1-5.41,2.19-1.59,4.51-2.87,6.95-3.82s4.9-1.43,7.38-1.43c2.9,0,5.15.85,6.74,2.55,1.59,1.7,2.46,3.89,2.6,6.58l-.08.78ZM209.38,178.86c0,1.84.35,3.29,1.06,4.35.71,1.06,1.77,1.59,3.18,1.59,1.91,0,3.8-.51,5.68-1.54,1.87-1.02,3.68-2.37,5.41-4.03,1.73-1.66,3.34-3.56,4.83-5.68,1.49-2.12,2.78-4.32,3.87-6.58,1.1-2.26,1.96-4.47,2.6-6.63.64-2.16.95-4.12.95-5.89,0-1.49-.37-2.74-1.11-3.77-.74-1.02-1.89-1.54-3.45-1.54s-3.08.48-4.78,1.43-3.41,2.21-5.15,3.77c-1.73,1.56-3.38,3.36-4.94,5.41-1.56,2.05-2.96,4.18-4.19,6.37-1.24,2.19-2.21,4.39-2.92,6.58-.71,2.19-1.06,4.25-1.06,6.16Z"/>
    <path class="st1" d="M240.9,177.38c1.06,0,1.98.39,2.76,1.17.78.78,1.17,1.7,1.17,2.76s-.39,1.98-1.17,2.76c-.78.78-1.7,1.17-2.76,1.17s-1.98-.39-2.76-1.17c-.78-.78-1.17-1.7-1.17-2.76s.39-1.98,1.17-2.76,1.7-1.17,2.76-1.17Z"/>
  </g>
</svg>