<?xml version="1.0" encoding="UTF-8"?>
<svg id="_레이어_1" data-name="레이어_1" xmlns="http://www.w3.org/2000/svg" version="1.1" xmlns:xlink="http://www.w3.org/1999/xlink" viewBox="0 0 420 360">
  <!-- Generator: Adobe Illustrator 30.1.0, SVG Export Plug-In . SVG Version: 2.1.1 Build 136)  -->
  <defs>
    <style>
      .st0 {
        fill: #d42042;
      }

      .st1 {
        fill: none;
      }

      .st2 {
        fill: #9fd9f6;
      }

      .st3 {
        clip-path: url(#clippath);
      }
    </style>
    <clipPath id="clippath">
      <rect class="st1" x="30" y="-30" width="360" height="420" transform="translate(30 390) rotate(-90)"/>
    </clipPath>
  </defs>
  <path class="st0" d="M420,20v320c-11.05,0-20,8.95-20,20H20c0-11.05-8.95-20-20-20V20c11.05,0,20-8.95,20-20h380c0,11.05,8.95,20,20,20Z"/>
  <g class="st3">
    <path class="st2" d="M485.34,253.27c0-8.15-1.5-15.11-3.98-20.97,10.7-8.81,17.14-22.09,17.14-36.14s-6.34-27.13-16.89-35.93c2.33-5.73,3.73-12.51,3.73-20.39,0-45.81-38.55-69.79-76.63-69.79s-76.63,23.97-76.63,69.79c0,16.18,5.87,27.71,13.66,35.05-7.27,0-13.66,3.56-17.6,9.01h-.73v-1.99c0-5.65-10.23-10.23-10.23-10.23,0,0-10.23,4.58-10.23,10.23,0-5.65-10.23-10.23-10.23-10.23,0,0-10.23,4.58-10.23,10.23v1.99s-127.31,0-132.1,0c-8.37,0-13.29-5.14-16.06-9.07-1.02-1.44-2.45-1.44-3.46,0-2.77,3.93-7.69,9.07-16.06,9.07h-20.26c-8.37,0-13.29-5.14-16.05-9.07-1.02-1.44-2.45-1.44-3.47,0-2.77,3.93-7.69,9.07-16.06,9.07H-63.67c-1.77,0-3.99,1.19-4.97,2.67l-4.86,7.33c-.98,1.47-.98,3.86,0,5.33l4.86,7.33c.97,1.47,3.2,2.67,4.96,2.67h13.33v51.86h26.84v-18.84h-12.17v-21.01H-10.16v30.12H6.51v-30.12h25.5v21.01h-12.17v18.84h26.85v-51.86h16.25c8.37,0,13.29,5.15,16.06,9.07,1.01,1.45,2.45,1.45,3.47,0,2.77-3.93,7.68-9.07,16.05-9.07h20.26c8.37,0,13.29,5.15,16.06,9.07,1.01,1.45,2.44,1.45,3.46,0,2.77-3.93,7.68-9.07,16.06-9.07,4.8,0,132.1,0,132.1,0v1.99c0,5.65,10.23,10.24,10.23,10.24,0,0,10.23-4.59,10.23-10.24,0,5.65,10.23,10.24,10.23,10.24,0,0,10.23-4.59,10.23-10.24v-1.99h.73c3.94,5.45,10.33,9.01,17.57,9.01-7.75,7.34-13.63,18.88-13.63,35.05,0,45.82,38.55,69.79,76.63,69.79s76.63-23.97,76.63-69.79ZM367.36,196.56c0-4.56-1.41-8.78-3.82-12.27,1.87.37,3.7.56,5.44.56,15.63,0,23.81-10.43,23.81-20.72,0-11.18-8.6-19.61-20-19.61-4.42,0-7.99,3.58-7.99,8s3.58,8,7.99,8c3.48,0,4,2.27,4,3.62,0,2.87-3.06,4.73-7.81,4.73-5.43,0-20.92-5.33-20.92-29.02s13.39-40.76,31.45-48.14c8.75-3.57,19.04-3.98,26.19-2.4,14,3.09,22.85,18.55,19.17,31.94-2.84,10.34-13.63,16.77-23.56,14.05-3.8-1.03-6.98-3.52-8.76-6.81-1.5-2.78-1.82-5.83-.92-8.6.97-2.99,3.71-5.47,6.83-6.18,3.44-.79,5.6-4.21,4.81-7.66-.78-3.45-4.21-5.6-7.66-4.81-7.46,1.71-13.8,7.48-16.15,14.7-1.99,6.12-1.34,12.74,1.83,18.62,3.42,6.36,9.48,11.13,16.63,13.08,16.9,4.64,34.53-5.69,39.28-23,3.52-12.84-.31-26.34-8.83-35.98,22.08,6.01,40.95,22.55,40.95,51.19,0,23.68-15.49,29.02-20.92,29.02-4.75,0-7.82-1.85-7.82-4.73,0-1.35.52-3.62,4-3.62,4.42,0,8-3.58,8-8s-3.58-8-8-8c-11.4,0-20,8.44-20,19.61,0,10.3,8.18,20.72,23.81,20.72,7.73,0,17.05-3.56,24.39-11.07,6.09,5.75,9.69,13.85,9.69,22.38s-3.77,16.99-10.1,22.76c-7.28-7.22-16.4-10.66-23.99-10.66-15.63,0-23.81,10.42-23.81,20.72,0,11.18,8.59,19.61,20,19.61,4.42,0,8-3.58,8-7.99s-3.58-8-8-8c-3.48,0-4-2.27-4-3.62,0-2.87,3.07-4.72,7.82-4.72,5.42,0,20.92,5.33,20.92,29.01,0,28.64-18.87,45.18-40.95,51.19,8.52-9.63,12.35-23.13,8.83-35.98-4.75-17.32-22.38-27.65-39.28-23-7.15,1.96-13.21,6.73-16.63,13.08-3.18,5.89-3.83,12.51-1.83,18.63,2.35,7.22,8.69,12.99,16.15,14.69,3.45.79,6.88-1.36,7.66-4.81.79-3.44-1.37-6.87-4.81-7.66-3.12-.71-5.86-3.2-6.83-6.19-.9-2.76-.57-5.82.92-8.6,1.77-3.29,4.96-5.77,8.76-6.81,9.93-2.73,20.72,3.71,23.56,14.05,3.67,13.39-5.18,28.85-19.17,31.94-7.15,1.58-17.44,1.18-26.19-2.4-18.07-7.38-31.45-23.55-31.45-48.14s15.49-29.01,20.92-29.01c4.75,0,7.81,1.85,7.81,4.72,0,1.35-.52,3.62-4,3.62-4.42,0-7.99,3.58-7.99,8s3.58,7.99,7.99,7.99c11.4,0,20-8.43,20-19.61,0-10.29-8.18-20.72-23.81-20.72-1.74,0-3.57.19-5.44.56,2.4-3.49,3.82-7.71,3.82-12.27Z"/>
  </g>
  <g>
    <g>
      <path class="st2" d="M104.75,154.66v-30.77h4.15v30.77h-4.15ZM107.22,140.72v-3.64h11.56v3.64h-11.56ZM117.01,154.66v-30.77h4.15v30.77h-4.15Z"/>
      <path class="st2" d="M126.2,154.66v-30.77h4.2v30.77h-4.2Z"/>
      <path class="st2" d="M135.46,154.66v-30.77h5.69l8.53,25.31h.33l-.19-25.31h3.96v30.77h-5.64l-8.58-25.59h-.33l.19,25.59h-3.96Z"/>
      <path class="st2" d="M157.18,127.48v-3.59h16.46v3.59h-16.46ZM163.34,154.66v-30.77h4.15v30.77h-4.15Z"/>
      <path class="st2" d="M182.08,136.34c-.78,0-1.38-.23-1.82-.68-.44-.45-.65-1.13-.65-2.03s.22-1.58.65-2.03c.43-.45,1.04-.68,1.82-.68s1.42.23,1.84.68c.42.45.63,1.13.63,2.03,0,1.8-.82,2.7-2.47,2.7ZM182.08,151.35c-.78,0-1.38-.23-1.82-.68-.44-.45-.65-1.13-.65-2.03s.22-1.58.65-2.03c.43-.45,1.04-.68,1.82-.68s1.42.23,1.84.68c.42.45.63,1.13.63,2.03,0,1.8-.82,2.7-2.47,2.7Z"/>
    </g>
    <g>
      <path class="st2" d="M212.94,203.13c-17.47,0-28.76-10.66-28.76-27.16,0-14.14,8.88-32.9,24.37-51.48,20.12-24.14,54.32-50.13,81.88-50.13,15.54,0,25.19,9.24,25.19,24.12,0,17.89-14.93,38.48-23.83,49.16-11.02,13.22-26.81,26.56-37.25,26.56-5.6,0-8.95-3.41-8.95-9.12,0-4.82,2.6-10.1,6.9-16.83-16.63,16.98-28.12,25.24-35.09,25.24-3.58,0-6.09-3.09-6.09-7.52,0-12.82,18.37-31.56,20.46-33.65,13.88-13.88,35.2-28.85,45.44-28.85,3.47,0,5.38,1.78,5.38,5.02,0,1.04-.34,2.34-.79,3.56l5.96-7.15h9.54l-38.36,46.15c-6.25,7.66-9.56,13.51-9.56,16.9,0,2.87,1.9,4.45,5.34,4.45,9.73,0,25.37-13.44,35.78-25.93,8.7-10.44,23.3-30.56,23.3-47.97,0-13.75-8.89-22.3-23.19-22.3-25.55,0-57.07,26.95-76.31,50.04-16.98,20.38-26.34,39.06-26.34,52.61s9.8,22.48,24.98,22.48c12.31,0,27.18-5.84,42.99-16.9l.33-.23.92,1.54-.29.2c-16.11,11.26-31.31,17.21-43.96,17.21ZM277.22,105.29c-7.7,0-25.23,17.53-33.66,25.96-11,11-28.46,31.03-28.46,37.94,0,1.65.96,2.48,2.84,2.48,10.06,0,34.73-25.11,47.92-40.93,9.17-11,14.73-17.98,14.73-22.26,0-2.33-.91-3.2-3.37-3.2Z"/>
      <path class="st2" d="M290.43,74.74c15.35,0,24.82,9.11,24.82,23.75,0,15.53-11.25,33.92-23.75,48.92-10.71,12.85-26.43,26.42-36.96,26.42-5.89,0-8.57-3.75-8.57-8.75,0-5.36,3.39-11.43,8.21-18.75l-.18-.18c-15,15.53-28.57,26.96-36.6,26.96-3.57,0-5.71-3.21-5.71-7.14,0-10.36,12.68-25.71,20.35-33.39,13.39-13.39,34.82-28.75,45.17-28.75,2.86,0,5,1.25,5,4.64,0,1.43-.71,3.57-1.61,5.36h.18l7.14-8.57h8.57l-37.85,45.53c-5.54,6.78-9.64,13.21-9.64,17.14,0,2.86,1.78,4.82,5.71,4.82,9.64,0,25.35-13.21,36.07-26.07,12.5-15,23.39-33.03,23.39-48.21,0-13.93-8.93-22.68-23.57-22.68-24.28,0-55.17,24.46-76.6,50.17-15.18,18.21-26.43,37.67-26.43,52.85,0,13.75,9.64,22.85,25.35,22.85,13.21,0,28.39-6.61,43.21-16.96l.54.89c-14.82,10.36-30.35,17.14-43.74,17.14-18.21,0-28.39-11.43-28.39-26.78s10-34.1,24.28-51.24c21.43-25.71,55.35-49.99,81.6-49.99M217.94,172.04c10.18,0,34.82-25,48.21-41.07,9.82-11.78,14.82-18.21,14.82-22.5,0-2.5-1.07-3.57-3.75-3.57-7.32,0-22.5,14.64-33.92,26.07-11.78,11.78-28.57,31.25-28.57,38.21,0,1.79,1.07,2.86,3.21,2.86M290.43,73.99c-27.68,0-62,26.05-82.17,50.26-15.54,18.65-24.46,37.5-24.46,51.72,0,16.73,11.44,27.53,29.14,27.53,12.72,0,28-5.97,44.17-17.28l.57-.4-.36-.6-.54-.89-.41-.69-.66.46c-15.75,11.01-30.55,16.83-42.78,16.83-15.18,0-24.6-8.47-24.6-22.1s9.32-32.06,26.25-52.37c19.18-23.02,50.6-49.9,76.02-49.9,14.07,0,22.82,8.4,22.82,21.93,0,17.29-14.55,37.32-23.22,47.73-10.68,12.82-26.3,25.8-35.49,25.8-2.26,0-4.96-.71-4.96-4.07s3.28-9.07,9.47-16.67l37.85-45.52,1.02-1.23h-10.52l-.22.27-4.64,5.57c.16-.66.26-1.31.26-1.88,0-3.43-2.1-5.39-5.75-5.39-10.34,0-31.77,15.04-45.7,28.96-2.11,2.11-20.57,20.95-20.57,33.92,0,4.65,2.66,7.89,6.46,7.89,6.74,0,17.57-7.53,33.03-23-3.28,5.48-5.21,10-5.21,14.21,0,5.95,3.48,9.5,9.32,9.5,11.28,0,27.27-14.38,37.54-26.69,8.93-10.72,23.92-31.39,23.92-49.4,0-15.11-9.8-24.5-25.57-24.5h0ZM217.94,171.29c-1.66,0-2.46-.69-2.46-2.11,0-6.06,14.61-23.94,28.35-37.68,8.39-8.39,25.85-25.85,33.39-25.85,2.24,0,3,.71,3,2.82,0,4.14-5.53,11.08-14.64,22.02-13.14,15.77-37.7,40.8-47.63,40.8h0Z"/>
    </g>
  </g>
</svg>