<?xml version="1.0" encoding="UTF-8"?>
<svg id="_레이어_1" data-name="레이어_1" xmlns="http://www.w3.org/2000/svg" xmlns:xlink="http://www.w3.org/1999/xlink" version="1.1" viewBox="0 0 787.88 1339.39">
  <!-- Generator: Adobe Illustrator 29.0.0, SVG Export Plug-In . SVG Version: 2.1.0 Build 186)  -->
  <defs>
    <style>
      .st0 {
        fill: none;
      }

      .st1 {
        fill: #ff00c3;
      }

      .st2 {
        clip-path: url(#clippath);
      }
    </style>
    <clipPath id="clippath">
      <polygon class="st0" points="532.92 565.3 513.01 463.7 506.47 334.11 502.4 312.38 491.17 252.41 461.09 209.17 415.87 199.51 402.82 196.72 357.81 226.61 327.03 223.33 312.1 204.83 323.34 182.9 324.45 122.52 318.95 106.81 286.26 146.91 262.14 172.8 208.11 170.59 175.01 197.31 126.5 185.01 93.21 188.57 125.57 218.72 146.88 244.12 130.68 270.86 122.56 301.13 124.41 303.32 128.89 327.19 152.24 341.29 170.95 402 188.49 446.06 192.93 479.45 180.32 522.59 209.24 593.29 244.22 640.62 271.28 639.93 272.45 684.55 264.26 711.26 310.28 713.5 300.28 680.41 295.19 639.31 304.69 639.07 352.88 622.86 357.09 614.26 376.9 689.48 379.62 730.69 420.51 722.6 398.26 681.08 388.32 640.88 390.76 618.01 385.32 602.3 389.41 530.68 387.93 461.13 425.47 442.9 445.5 421.9 444.47 544.25 430.79 589.05 479.73 588.94 475.1 557.31 479.86 416.68 477.46 380.83 483.59 373.48 486.54 410.01 497.35 540.15 494 579.82 532.92 565.3"/>
    </clipPath>
  </defs>
  <g class="st2">
    <polygon class="st1" points="333.98 159.56 327.04 163.46 322.42 169.9 317.51 176.27 313.36 169.29 307.85 163.62 300.72 159.56 308.04 155.74 313.43 149.89 317.51 142.43 320.68 150.61 328.16 154.25 333.98 159.56"/>
    <polygon class="st1" points="235.84 261.95 228.9 265.85 224.28 272.29 219.37 278.66 215.21 271.68 209.7 266.01 202.58 261.95 209.89 258.13 215.29 252.28 219.37 244.82 222.54 253 230.02 256.64 235.84 261.95"/>
    <polygon class="st1" points="271.83 231.56 263.8 235.68 259.45 242.26 254.08 248.29 248.85 242.15 243.18 237.18 238.7 231.56 243.87 226.8 248.47 220.66 254.08 214.59 259.36 220.92 264.78 226.2 271.83 231.56"/>
    <polygon class="st1" points="230.03 221.61 230.67 230.52 234.83 237.19 238.29 244.47 230.57 246.73 223.7 249.9 216.78 251.96 214.57 245.22 210.86 238.5 207.46 231.01 215.37 228.78 222.39 225.93 230.03 221.61"/>
    <polygon class="st1" points="143.76 214.67 136.79 219.46 131.54 225.06 126.55 231.97 122.2 224.56 116.74 218.91 108.96 214.67 117.3 211.12 122.52 205.03 126.55 198.61 130.67 204.96 137.38 209.14 143.76 214.67"/>
    <polygon class="st1" points="312.76 190.67 307.11 195.74 299.95 199.73 296.64 207.93 293.41 199.67 286.97 194.74 280.41 190.67 286.92 186.54 291.04 179.79 296.64 174.95 300.44 181.22 305.83 187.2 312.76 190.67"/>
    <polygon class="st1" points="258.9 297.33 252.75 302.09 248.1 308.19 242.53 315.33 237.52 307.75 232.5 301.85 225.22 297.33 232.47 292.77 237.1 286.58 242.53 282.15 246.17 288 252.46 292.93 258.9 297.33"/>
    <polygon class="st1" points="277.01 332.02 269.13 335.49 263.78 341.51 259.94 349.68 254.78 342.56 249.47 337.1 243.18 332.02 250.05 327.67 256.77 323.07 259.94 317.02 264.7 321.81 270.37 327 277.01 332.02"/>
    <polygon class="st1" points="216.93 227.11 209.05 230.58 203.7 236.6 199.86 244.77 194.7 237.65 189.39 232.19 183.09 227.11 189.97 222.76 196.69 218.16 199.86 212.11 204.62 216.89 210.29 222.09 216.93 227.11"/>
    <polygon class="st1" points="260.48 418.75 252.6 422.21 247.26 428.24 243.42 436.41 238.25 429.29 232.95 423.83 226.65 418.75 233.53 414.4 240.24 409.79 243.42 403.75 248.18 408.53 253.85 413.72 260.48 418.75"/>
    <polygon class="st1" points="292.48 477.77 284.6 481.23 279.26 487.25 275.42 495.43 270.25 488.31 264.94 482.84 258.65 477.77 265.52 473.42 272.24 468.81 275.42 462.77 280.18 467.55 285.84 472.74 292.48 477.77"/>
    <polygon class="st1" points="380.23 288.44 373.92 292.71 367.79 297.81 364.1 306.46 358.49 299.33 354.53 292.39 349.23 288.44 354.36 284.29 360.67 279.29 364.1 271.13 367.27 279.49 374.4 283.58 380.23 288.44"/>
    <polygon class="st1" points="410.07 238.98 412.03 245.42 415.84 252.19 418.61 259.38 411.36 262.01 404.28 264.59 397.06 267.53 394.49 260.16 392.94 252.55 388.26 245.54 396.57 244.29 403.49 240.86 410.07 238.98"/>
    <polygon class="st1" points="429.22 206.48 422.65 208.07 415.68 211.48 408.36 213.9 406.15 206.51 403.95 199.29 401.37 191.94 408.87 189.81 416.55 188.63 423.79 184.34 424.6 192.7 427.63 199.8 429.22 206.48"/>
    <polygon class="st1" points="440 219.73 437.95 226.21 437.25 233.95 435.62 241.48 428.17 239.53 420.83 237.71 413.19 236.2 415.25 228.69 418.14 221.48 418.18 213.08 425.75 216.67 433.4 217.74 440 219.73"/>
    <polygon class="st1" points="464.5 206.72 459.6 211.18 455.11 217.52 449.62 222.92 444.12 217.53 438.85 212.17 433.27 206.72 438.82 201.23 445.18 196.76 449.62 189.52 454.23 196.62 460.26 201.43 464.5 206.72"/>
    <polygon class="st1" points="425.25 308.89 420.35 313.35 415.86 319.69 410.37 325.09 404.87 319.69 399.6 314.33 394.02 308.89 399.57 303.4 405.93 298.92 410.37 291.69 414.98 298.79 421.01 303.59 425.25 308.89"/>
    <polygon class="st1" points="408.68 501.79 403.78 506.25 399.29 512.6 393.8 518 388.29 512.6 383.03 507.24 377.45 501.79 383 496.3 389.36 491.83 393.8 484.59 398.4 491.69 404.44 496.5 408.68 501.79"/>
    <polygon class="st1" points="386.79 251.39 380.85 255.14 376.53 261.88 371.43 268.93 368.17 260.41 362.26 254.83 356.32 251.39 361.6 247.12 368.12 242.32 371.43 233.99 376.21 241.15 380.99 247.45 386.79 251.39"/>
    <polygon class="st1" points="379.24 216.53 374.35 221.39 369.22 227.08 364.05 231.83 359.75 226.38 353.99 221.1 347.53 216.53 354.54 212.66 360.93 207.62 364.05 198.66 367.76 207.15 373.64 212.57 379.24 216.53"/>
    <polygon class="st1" points="515.02 330.48 508.24 333.9 503.38 340.32 499.09 346.86 494.24 340.78 489.14 334.91 481.68 330.48 488.38 325.11 495.2 320.96 499.09 314.7 504.71 319.59 509.33 325.7 515.02 330.48"/>
    <polygon class="st1" points="222.59 286.93 215.81 290.35 210.95 296.77 206.67 303.3 201.81 297.23 196.71 291.36 189.25 286.93 195.95 281.55 202.77 277.4 206.67 271.15 212.28 276.03 216.91 282.14 222.59 286.93"/>
    <polygon class="st1" points="459.64 470.25 452.04 470.59 444.9 474.27 438.26 478.39 436.47 470.81 434.26 463.35 429.44 456.24 437.73 454.26 445.6 453.2 451.82 449.16 454.68 456.04 456.41 463.52 459.64 470.25"/>
    <polygon class="st1" points="179.19 365.98 171.97 369.91 166.38 375.57 162.41 382.13 156.99 376.72 152.92 369.82 145.96 365.98 153.22 362.51 158.38 356.34 162.41 349.25 165.92 356.75 171.93 362.09 179.19 365.98"/>
  </g>
</svg>