<?xml version="1.0" encoding="UTF-8"?>
<svg id="_레이어_1" xmlns="http://www.w3.org/2000/svg" version="1.1" viewBox="0 0 1976.13 561.39">
  <!-- Generator: Adobe Illustrator 29.5.1, SVG Export Plug-In . SVG Version: 2.1.0 Build 141)  -->
  <defs>
    <style>
      .st0 {
        fill: #dbdbdb;
      }

      .st1 {
        isolation: isolate;
      }

      .st2 {
        fill: #fff;
      }
    </style>
  </defs>
  <polygon class="st0" points="559.46 178.79 630.89 181.29 702.32 190.42 773.75 186.68 845.19 195.03 916.62 193.82 988.05 184.03 1059.49 180.66 1130.92 187.76 1202.35 191.97 1273.79 187.21 1345.23 191.88 1416.67 179.44 1485.19 212.17 1510.05 280.69 1510.75 280.7 1485.12 349.15 1416.67 384.71 1345.24 376.12 1273.81 366.94 1202.38 377.23 1130.94 372.24 1059.51 377.95 988.08 372.24 916.64 381.39 845.21 371.29 773.78 382.8 702.34 381.29 630.9 366.94 559.46 378.49 496.03 344.12 459.32 280.7 459.74 280.69 487.57 208.8 559.46 178.79"/>
  <g class="st1">
    <g class="st1">
      <path d="M638.74,317.74v-84.68h52.93v10.59h-42.34v63.51h42.34v10.59h-52.93ZM723.43,328.33h-10.59v-95.27h10.59v42.34h10.59v10.59h-10.59v42.34Z"/>
      <path d="M744.6,296.57v-10.59h95.27v10.59h-95.27ZM829.28,254.23h-52.93v-10.59h-21.17v-10.59h74.1v21.17h0ZM829.28,275.4h-74.1v-21.17h21.17v10.59h52.93v10.59h0ZM829.28,317.74v10.59h-74.1v-21.17h10.59v10.59h63.51,0Z"/>
      <path d="M892.79,275.4v-42.34h52.93v42.34h-52.93ZM935.14,264.82v-21.17h-31.76v21.17h31.76ZM977.48,307.16h-52.93v-10.59h-21.17v-10.59h74.1v21.17h0ZM977.48,317.74v10.59h-74.1v-21.17h21.17v10.59h52.93ZM988.07,254.23h-10.59v21.17h-10.59v-42.34h10.59v10.59h10.59v10.59h0Z"/>
      <path d="M1040.99,317.74v-10.59h42.34v-31.76h10.59v31.76h42.34v10.59h-95.27,0ZM1125.68,296.57h-10.59v-52.93h-63.51v-10.59h74.1v63.51h0Z"/>
      <path d="M1146.85,317.74v-10.59h95.27v10.59h-95.27ZM1231.53,275.4v10.59h-74.1v-31.76h63.51v-10.59h-63.51v-10.59h74.1v31.76h-63.51v10.59h63.51Z"/>
      <path d="M1252.7,243.65v-10.59h52.93v42.34h-10.59v-31.76h-42.34ZM1252.7,317.74v-10.59h21.17v10.59h-21.17ZM1273.88,307.16v-10.59h10.59v10.59h-10.59ZM1284.46,275.4h10.59v21.17h-10.59v-21.17ZM1337.39,328.33h-10.59v-95.27h10.59v95.27Z"/>
    </g>
  </g>
  <g>
    <path class="st2" d="M480.96,504.66l-3.44,4.92c-5.53-2.22-9.43-6.4-11.59-11.46-2.26,5.63-6.37,10.48-12.2,13l-3.5-4.92c8.15-3.57,12.53-11.39,12.53-18.19v-7.75h6.2v7.75c0,6.81,4.18,13.61,11.99,16.64ZM501.98,537h-6.33v-15.5h-34.7v-5.19h41.04v20.69ZM501.98,513.15h-6.06v-15.77h-7.08v15.43h-5.93v-35.11h5.93v14.35h7.08v-15.36h6.06v36.45Z"/>
    <path class="st2" d="M545.51,504.53l-3.44,5.05c-6.6-2.32-11.56-7.04-14.15-13-2.66,6.77-7.78,12.06-14.82,14.69l-3.44-5.12c9.43-3.37,14.89-11.39,14.96-20.42v-5.93h6.33v6.47c0,7.95,5.53,15.3,14.55,18.26ZM558.11,525.68c0,7.14-7.61,11.25-20.01,11.19-12.53.07-20.28-4.04-20.28-11.19s7.75-11.19,20.28-11.19,20.01,4.11,20.01,11.19ZM524.22,525.68c-.07,3.98,5.12,6.13,13.88,6.2,8.69-.07,13.75-2.22,13.75-6.2s-5.05-6.13-13.75-6.13-13.95,2.29-13.88,6.13ZM557.57,491.79h8.76v5.39h-8.76v15.9h-6.4v-36.45h6.4v15.16Z"/>
    <path class="st2" d="M583.65,506.82c0-6.94,5.66-12.6,12.67-12.6s12.6,5.66,12.6,12.6-5.66,12.67-12.6,12.67-12.67-5.66-12.67-12.67Z"/>
    <path class="st2" d="M661.81,488.08h-6.2v28.1c3-.17,5.93-.47,8.76-.81l.34,4.65c-12.67,2.09-26.89,2.29-37.46,2.36l-.74-5.32,7.68-.07v-28.91h-6.2v-5.26h33.83v5.26ZM649.42,516.59v-28.5h-9.03v28.77c2.96-.03,6-.13,9.03-.27ZM674.28,500.42h9.7v5.26h-9.7v31.33h-6.4v-60.38h6.4v23.79Z"/>
    <path class="st2" d="M742.13,529.46h-55.25v-5.26h55.25v5.26ZM737.01,491.12h-19.34c.27,9.06,9.13,16.54,21.5,18.53l-2.56,5.12c-10.01-1.79-18.29-6.91-22.17-14.29-3.94,7.38-12.23,12.5-22.17,14.29l-2.49-5.12c12.23-1.99,21.09-9.47,21.43-18.53h-19.34v-5.19h19.41v-8.02h6.33v8.02h19.41v5.19Z"/>
    <path class="st2" d="M818.61,529.46h-55.25v-5.26h24.39v-14.29h6.4v14.29h24.46v5.26ZM816.19,506.88l-2.56,5.05c-9.74-1.85-18.73-7.51-22.64-15.43-3.94,8.02-12.87,13.85-22.44,15.7l-2.63-5.05c11.25-1.89,21.63-10.31,21.63-19.54v-.54h-19.61v-5.26h45.89v5.26h-19.61v.54c0,9.23,10.44,17.45,21.97,19.27Z"/>
    <path class="st2" d="M859.04,487.68h-35.98v-5.12h14.82v-6.47h6.4v6.47h14.76v5.12ZM855.67,500.75c0,6.4-5.93,10.65-14.62,10.58-8.83.07-14.69-4.18-14.69-10.58s5.86-10.58,14.69-10.58,14.62,4.11,14.62,10.58ZM838.15,520.16h25.88v-5.86h6.4v21.97h-38.61v-21.97h6.33v5.86ZM832.56,500.75c-.07,3.57,3.37,5.86,8.49,5.86s8.56-2.29,8.62-5.86c-.07-3.5-3.5-5.86-8.62-5.79-5.12-.07-8.56,2.29-8.49,5.79ZM864.03,531.14v-6h-25.88v6h25.88ZM870.43,491.79h8.76v5.39h-8.76v14.62h-6.4v-35.17h6.4v15.16Z"/>
    <path class="st2" d="M915.91,502.3c0,13-6.6,21.23-15.57,21.23s-15.63-8.22-15.63-21.23,6.54-21.16,15.63-21.16,15.57,8.22,15.57,21.16ZM890.92,502.3c0,9.57,3.84,15.5,9.43,15.5s9.37-5.93,9.37-15.5-3.84-15.43-9.37-15.43-9.43,5.93-9.43,15.43ZM932.63,537.14h-6.4v-60.51h6.4v60.51Z"/>
    <path class="st2" d="M984.58,499.47h-16.58v8.15c7.48,0,13.17-.4,19.81-1.68l.67,5.12c-7.61,1.42-13.88,1.68-22.71,1.68h-3.98v-18.13h16.64v-7.75h-16.78v-5.12h22.91v17.72ZM1012.34,535.72h-41.78v-18.33h6.33v13.14h35.44v5.19ZM1010.59,521.57h-6.06v-21.9h-7.41v20.28h-6v-42.18h6v16.64h7.41v-17.72h6.06v44.88Z"/>
    <path class="st2" d="M1049.67,485.59h-21.29v18.06c10.71-.03,17.12-.34,24.46-1.82l.61,5.19c-7.95,1.55-14.82,1.95-26.82,1.95h-4.58v-28.57h27.63v5.19ZM1069.08,536.2h-39.82v-21.76h39.82v21.76ZM1035.59,531.01h27.22v-11.52h-27.22v11.52ZM1069.08,511.53h-6.4v-15.23h-16.37v-5.26h16.37v-14.42h6.4v34.9Z"/>
    <path class="st2" d="M1133.63,529.19h-55.25v-5.32h55.25v5.32ZM1128.17,497.11c0,10.17-9.64,16.91-22.3,16.85-12.67.07-22.24-6.67-22.24-16.85s9.57-16.85,22.24-16.85,22.3,6.67,22.3,16.85ZM1089.76,497.11c-.07,7.08,6.87,11.59,16.1,11.59s16.1-4.51,16.1-11.59-6.87-11.72-16.1-11.66c-9.23-.07-16.17,4.65-16.1,11.66Z"/>
    <path class="st2" d="M1193.26,529.79h-55.25v-5.39h24.33v-10.58h-17.59v-19.2h35.44v-8.49h-35.58v-5.26h41.91v18.87h-35.44v8.83h36.86v5.26h-19.27v10.58h24.59v5.39Z"/>
    <path class="st2" d="M1264.82,521.3h-6.4v-15.7h-13.21v5.66h-27.83v-30.59h6.4v10.24h15.09v-10.24h6.33v6.74h13.21v-10.71h6.4v44.61ZM1238.88,506.08v-10.24h-15.09v10.24h15.09ZM1266.17,535.72h-40.77v-18.8h6.47v13.61h34.3v5.19ZM1258.42,500.42v-7.75h-13.21v7.75h13.21Z"/>
    <path class="st2" d="M1324.46,512.41h-6.4v-7.34h-15.23v-5.26h15.23v-7.34h-14.62c-3.87,9.7-12.94,16.54-26.01,20.28l-2.56-4.99c14.29-4.11,22.64-11.76,23.79-21.5h-20.69v-5.26h27.63c0,2.22-.24,4.38-.61,6.4h13.07v-10.71h6.4v35.71ZM1324.86,524.88c-.07,7.34-8.09,11.86-20.28,11.86s-20.35-4.51-20.35-11.86,7.95-11.79,20.35-11.79,20.21,4.45,20.28,11.79ZM1290.56,524.88c0,4.25,5.39,6.74,14.02,6.74s13.81-2.49,13.88-6.74c-.07-4.31-5.39-6.74-13.88-6.74s-14.02,2.43-14.02,6.74Z"/>
    <path class="st2" d="M1350.74,504.86v-5.93h-11.46v-19.41h28.84v5.26h-22.44v9.1h22.98v5.05h-11.59v5.66c5.39-.27,10.78-.67,15.83-1.35l.34,4.51c-13.07,2.22-27.56,2.43-38.41,2.49l-.94-5.19c4.99,0,10.82-.03,16.85-.2ZM1350.06,519.89h27.56v-5.79h6.33v22.17h-40.29v-22.17h6.4v5.79ZM1377.62,531.08v-6.27h-27.56v6.27h27.56ZM1383.96,511.47h-6.47v-34.77h6.47v34.77Z"/>
    <path class="st2" d="M1403.43,516.12c8.79-.07,18.06-.77,27.76-2.76l.88,5.39c-10.71,2.16-20.42,2.9-29.92,2.9h-5.05v-39.15h6.33v33.62ZM1443.52,537h-6.4v-60.38h6.4v60.38Z"/>
    <path class="st2" d="M1483.82,487.61h-21.83v29.18c10.14-.03,17.76-.47,26.35-2.02l.81,5.39c-9.43,1.68-17.45,2.02-28.71,1.95h-4.85v-39.69h28.23v5.19ZM1500.06,500.01h9.7v5.26h-9.7v31.87h-6.4v-60.51h6.4v23.38Z"/>
    <path class="st2" d="M1514.75,526.96c-.07-2.63,2.16-4.78,4.78-4.78s4.78,2.16,4.78,4.78-2.22,4.78-4.78,4.78-4.85-2.16-4.78-4.78Z"/>
  </g>
</svg>