<?xml version="1.0" encoding="UTF-8"?>
<svg id="_레이어_1" xmlns="http://www.w3.org/2000/svg" xmlns:xlink="http://www.w3.org/1999/xlink" version="1.1" viewBox="0 0 1008.13 386.68">
  <!-- Generator: Adobe Illustrator 29.0.0, SVG Export Plug-In . SVG Version: 2.1.0 Build 186)  -->
  <defs>
    <style>
      .st0 {
        fill: none;
      }

      .st1 {
        fill: #d21900;
        opacity: .9;
      }

      .st2 {
        fill: #49c6ff;
      }

      .st3 {
        fill: #fff;
      }

      .st4 {
        clip-path: url(#clippath);
      }
    </style>
    <clipPath id="clippath">
      <polygon class="st0" points="855.97 381.08 785.53 378.01 715.09 381.05 644.65 376.91 574.2 380.25 503.76 381.86 433.32 382.68 362.88 381.14 292.43 380.27 221.99 376.74 151.54 381.38 84.94 364.75 37.63 315.16 18.39 249.39 18.19 249.39 36.66 183.07 85.97 135.82 151.54 120.75 221.98 121.59 292.42 116.77 362.86 119.43 433.31 115.6 503.75 122.1 574.19 118.26 644.63 115.91 715.08 116.84 785.52 115.88 855.97 117.72 921.67 135.59 968.13 184.64 989.94 249.39 984.99 249.39 968.23 314.2 922.51 364.64 855.97 381.08"/>
    </clipPath>
  </defs>
  <polygon class="st1" points="855.97 381.08 785.53 378.01 715.09 381.05 644.65 376.91 574.2 380.25 503.76 381.86 433.32 382.68 362.88 381.14 292.43 380.27 221.99 376.74 151.54 381.38 84.94 364.75 37.63 315.16 18.39 249.39 18.19 249.39 36.66 183.07 85.97 135.82 151.54 120.75 221.98 121.59 292.42 116.77 362.86 119.43 433.31 115.6 503.75 122.1 574.19 118.26 644.63 115.91 715.08 116.84 785.52 115.88 855.97 117.72 921.67 135.59 968.13 184.64 989.94 249.39 984.99 249.39 968.23 314.2 922.51 364.64 855.97 381.08"/>
  <g class="st4">
    <g>
      <path class="st2" d="M107.92,250.57c4.84,0,8.47,1.1,10.89,3.31,2.42,2.21,3.63,5.1,3.63,8.68,0,3.16-.95,5.84-2.84,8.05-1.89,2.21-4.42,3.31-7.58,3.31-1.06,0-2.26-.26-3.63-.79-1.37-.52-2.37-1.31-3-2.37-2.32,2.53-3.84,5.58-4.58,9.15-.74,3.58-1.1,7.37-1.1,11.36,0,5.47,1.31,10.73,3.95,15.78,2.63,5.05,6.42,9.47,11.36,13.26,4.94,3.79,10.89,6.84,17.83,9.15,6.94,2.31,14.62,3.47,23.04,3.47,14.31,0,26.41-3.26,36.3-9.79,9.89-6.52,17.88-14.88,23.99-25.09,6.1-10.21,10.52-21.51,13.26-33.93,2.73-12.41,4.21-24.41,4.42-35.98.21-18.73,2.05-35.56,5.52-50.5,3.47-14.94,8.41-27.62,14.84-38.04,6.42-10.42,14.41-18.47,23.99-24.15,9.57-5.68,20.57-8.52,32.99-8.52,11.15,0,20.2,2.68,27.15,8.05,6.94,5.37,10.42,12.36,10.42,20.99,0,6.74-2.37,11.79-7.1,15.15-4.73,3.37-10.37,5.05-16.89,5.05,2.31-3.58,4.05-7.05,5.21-10.42,1.15-3.36,1.74-7.58,1.74-12.63,0-7.58-2.21-13.2-6.63-16.89-4.42-3.68-9.68-5.52-15.78-5.52-8.21,0-15.21,1.63-20.99,4.89-5.79,3.27-10.68,7.73-14.68,13.42-4,5.68-7.21,12.31-9.63,19.89-2.42,7.58-4.37,15.62-5.84,24.15-1.47,8.52-2.58,17.31-3.31,26.36-.74,9.05-1.42,17.99-2.05,26.83-1.48,21.68-5.32,39.61-11.52,53.82-6.21,14.2-13.84,25.52-22.88,33.93-9.05,8.42-19.15,14.31-30.3,17.68-11.16,3.36-22.62,5.05-34.41,5.05-9.47,0-18.15-1.53-26.04-4.58-7.89-3.05-14.68-7.26-20.36-12.63-5.68-5.37-10.05-11.73-13.1-19.1-3.05-7.36-4.58-15.47-4.58-24.31,0-7.36,1.69-13.46,5.05-18.31,3.36-4.84,7.78-7.26,13.26-7.26Z"/>
      <path class="st2" d="M416.63,113.26l-111.74,166.03.63.63c4.21-5.26,9.15-11.31,14.84-18.15,5.68-6.83,11.84-13.31,18.47-19.41,6.63-6.1,13.62-11.25,20.99-15.47,7.36-4.21,14.73-6.31,22.1-6.31,12.83,0,19.25,6.42,19.25,19.25,0,3.37-1.21,7.37-3.63,12-2.42,4.63-5.47,9.52-9.15,14.68-3.68,5.16-7.63,10.37-11.84,15.62-4.21,5.26-8.16,10.37-11.84,15.31-3.68,4.95-6.74,9.58-9.15,13.89-2.42,4.32-3.63,7.95-3.63,10.89,0,2.32.68,4.26,2.05,5.84,1.37,1.58,3.21,2.37,5.52,2.37,4.84,0,10.15-1.52,15.94-4.58,5.79-3.05,11.78-7.05,17.99-11.99,6.2-4.94,12.36-10.47,18.47-16.57,6.1-6.1,11.73-12.15,16.89-18.15,5.15-6,9.79-11.68,13.89-17.04s7.1-9.73,9-13.1l1.89.63c-2.32,4-5.58,8.84-9.79,14.52-4.21,5.68-9,11.68-14.36,17.99-5.37,6.31-11.16,12.58-17.36,18.78-6.21,6.21-12.42,11.79-18.62,16.73-6.21,4.95-12.36,8.95-18.47,11.99-6.11,3.05-11.79,4.58-17.05,4.58s-9.94-1.69-13.42-5.05c-3.47-3.36-5.21-7.99-5.21-13.89,0-4.21,1.21-8.84,3.63-13.89,2.42-5.05,5.47-10.15,9.15-15.31,3.68-5.15,7.62-10.31,11.84-15.47,4.21-5.15,8.15-10.05,11.84-14.68,3.68-4.63,6.73-8.89,9.15-12.78,2.42-3.89,3.63-7.21,3.63-9.94,0-3.36-.95-5.68-2.84-6.94s-4.21-1.89-6.94-1.89c-5.26,0-11.1,1.95-17.52,5.84-6.42,3.9-13.05,9-19.89,15.31-6.84,6.31-13.63,13.42-20.36,21.31-6.74,7.89-13.1,15.84-19.1,23.83-6,8-11.26,15.58-15.78,22.73-4.53,7.16-8.05,13.26-10.57,18.31h-20.52c11.58-18.1,23.46-36.51,35.67-55.24,12.2-18.73,24.35-37.35,36.46-55.87,12.1-18.51,23.94-36.77,35.51-54.77,11.57-17.99,22.51-35.19,32.83-51.61l21.15-.95Z"/>
      <path class="st2" d="M486.69,223.1c-8.21,11.16-16.1,21.78-23.67,31.88-7.58,10.1-14.31,19.36-20.2,27.78-5.89,8.42-10.57,15.73-14.05,21.94-3.47,6.21-5.21,11.1-5.21,14.68,0,3.37.84,5.84,2.53,7.42,1.68,1.58,3.89,2.37,6.63,2.37,4,0,8.36-1.26,13.1-3.79,4.73-2.53,9.57-5.79,14.52-9.79,4.94-4,9.79-8.41,14.52-13.26,4.73-4.84,9.15-9.63,13.26-14.36,4.1-4.73,7.68-9.1,10.73-13.1,3.05-4,5.31-7.15,6.79-9.47l27.78-42.3h21.78c-11.36,15.58-20.99,28.78-28.88,39.61-7.89,10.84-14.31,20.04-19.26,27.62-4.95,7.58-8.47,13.73-10.57,18.46-2.11,4.74-3.16,8.89-3.16,12.47,0,2.52.73,4.68,2.21,6.47,1.47,1.79,3.58,2.68,6.31,2.68,4.21,0,9.04-1.52,14.52-4.58,5.47-3.05,11.15-7.05,17.04-11.99,5.89-4.94,11.73-10.52,17.52-16.73,5.79-6.2,11.26-12.36,16.41-18.47,5.15-6.1,9.83-11.84,14.05-17.2,4.21-5.37,7.47-9.73,9.79-13.1l3.16.95c-2.53,3.58-5.89,8.16-10.1,13.73-4.21,5.58-8.95,11.47-14.21,17.68-5.26,6.21-10.84,12.52-16.73,18.94-5.89,6.42-11.95,12.15-18.15,17.2-6.21,5.05-12.31,9.21-18.31,12.47-6,3.26-11.63,4.89-16.89,4.89-5.89,0-10.57-1.63-14.05-4.89-3.47-3.26-5.21-7.62-5.21-13.1,0-4.21.68-8.26,2.05-12.15,1.37-3.89,2.37-6.36,3-7.42l-.63-.63c-4.42,5.05-9.05,9.89-13.89,14.52-4.84,4.63-9.68,8.68-14.52,12.15-4.84,3.47-9.74,6.26-14.68,8.37-4.95,2.1-9.84,3.16-14.68,3.16-6.74,0-11.58-1.53-14.52-4.58s-4.42-6.68-4.42-10.89c0-5.26,1.42-10.94,4.26-17.04,2.84-6.1,6.79-12.94,11.84-20.52,5.05-7.58,11.1-16.1,18.15-25.57,7.05-9.47,14.78-20.31,23.2-32.51h20.83Z"/>
      <path class="st2" d="M576.33,226.89v-3.79h24.3c8.21-13.04,16.62-26.2,25.25-39.46,8.63-13.26,17.68-25.2,27.15-35.83,9.47-10.62,19.36-19.25,29.67-25.88,10.31-6.63,21.15-9.94,32.51-9.94,6.73,0,12.2,1.42,16.41,4.26,4.21,2.84,6.31,7.21,6.31,13.1,0,5.05-1.58,9.21-4.73,12.47-3.16,3.26-7.16,5.1-12,5.52.84-2.94,1.52-5.73,2.05-8.36.52-2.63.79-5.73.79-9.31,0-4.21-1-7.58-3-10.1-2-2.53-5.42-3.79-10.26-3.79-7.79,0-15.73,3.53-23.83,10.57-8.1,7.05-16.1,15.94-23.99,26.67-7.89,10.73-15.58,22.36-23.04,34.88-7.47,12.52-14.57,24.26-21.31,35.19h71.34v3.79h-73.23c-20.2,34.51-38.3,64.08-54.29,88.7-15.99,24.62-31.35,44.82-46.08,60.6-14.73,15.78-29.46,27.35-44.19,34.72-14.73,7.36-31.04,11.05-48.93,11.05-6.31,0-12.36-.79-18.15-2.37-5.79-1.58-10.89-3.95-15.31-7.1-4.42-3.16-8-7.1-10.73-11.84-2.73-4.74-4.1-10.26-4.1-16.57,0-8.21,2.58-15.21,7.73-20.99,5.16-5.79,13.84-8.68,26.04-8.68h2.84v2.53c-6.31.42-11.68,2.84-16.1,7.26s-6.63,10.52-6.63,18.31c0,10.94,3.05,19.62,9.15,26.04,6.11,6.42,15.05,9.63,26.83,9.63s22.2-2.58,32.51-7.73c10.31-5.16,20.26-12.26,29.83-21.31,9.58-9.05,18.94-19.68,28.09-31.88,9.15-12.21,18.31-25.41,27.46-39.61,9.15-14.21,18.36-29.04,27.62-44.51,9.26-15.47,18.73-30.88,28.41-46.24h-22.41Z"/>
      <path class="st2" d="M646.4,226.89v-3.79h24.3c8.21-13.04,16.62-26.2,25.25-39.46,8.63-13.26,17.68-25.2,27.15-35.83,9.47-10.62,19.36-19.25,29.67-25.88,10.31-6.63,21.15-9.94,32.51-9.94,6.73,0,12.2,1.42,16.41,4.26,4.21,2.84,6.31,7.21,6.31,13.1,0,5.05-1.58,9.21-4.73,12.47-3.16,3.26-7.16,5.1-12,5.52.84-2.94,1.52-5.73,2.05-8.36.52-2.63.79-5.73.79-9.31,0-4.21-1-7.58-3-10.1-2-2.53-5.42-3.79-10.26-3.79-7.79,0-15.73,3.53-23.83,10.57-8.1,7.05-16.1,15.94-23.99,26.67-7.89,10.73-15.58,22.36-23.04,34.88-7.47,12.52-14.57,24.26-21.31,35.19h71.34v3.79h-73.23c-20.2,34.51-38.3,64.08-54.29,88.7-15.99,24.62-31.35,44.82-46.08,60.6-14.73,15.78-29.46,27.35-44.19,34.72-14.73,7.36-31.04,11.05-48.93,11.05-6.31,0-12.36-.79-18.15-2.37-5.79-1.58-10.89-3.95-15.31-7.1-4.42-3.16-8-7.1-10.73-11.84-2.73-4.74-4.1-10.26-4.1-16.57,0-8.21,2.58-15.21,7.73-20.99,5.16-5.79,13.84-8.68,26.04-8.68h2.84v2.53c-6.31.42-11.68,2.84-16.1,7.26s-6.63,10.52-6.63,18.31c0,10.94,3.05,19.62,9.15,26.04,6.11,6.42,15.05,9.63,26.83,9.63s22.2-2.58,32.51-7.73c10.31-5.16,20.26-12.26,29.83-21.31,9.58-9.05,18.94-19.68,28.09-31.88,9.15-12.21,18.31-25.41,27.46-39.61,9.15-14.21,18.36-29.04,27.62-44.51,9.26-15.47,18.73-30.88,28.41-46.24h-22.41Z"/>
      <path class="st2" d="M837.37,112c-18.73,28.41-35.04,52.98-48.93,73.7-13.89,20.73-25.78,38.46-35.67,53.19-9.89,14.73-17.99,26.88-24.3,36.46-6.31,9.58-11.26,17.42-14.84,23.52-3.58,6.11-6.05,10.94-7.42,14.52-1.37,3.58-2.05,6.63-2.05,9.15,0,5.26,2.31,7.89,6.94,7.89,5.26,0,11.41-2.16,18.47-6.47,7.05-4.31,14.62-10.2,22.73-17.68,8.1-7.47,16.36-16.2,24.78-26.2,8.41-9.99,16.62-20.68,24.62-32.04l3.47,1.26c-7.58,10.73-15.58,21.1-23.99,31.09-8.42,10-16.52,18.68-24.3,26.04-10.31,9.68-19.21,16.73-26.67,21.15-7.47,4.42-14.26,6.63-20.36,6.63-6.52,0-11.21-1.47-14.05-4.42s-4.26-6.84-4.26-11.68c0-4.42.79-9,2.37-13.73,1.58-4.73,4.26-10.42,8.05-17.04s8.78-14.68,14.99-24.15c6.2-9.47,13.89-21.09,23.04-34.88,9.15-13.78,19.94-30.19,32.35-49.24,12.41-19.04,26.72-41.4,42.93-67.08h22.09Z"/>
      <path class="st2" d="M909.65,249.94c-3.16,5.26-7.1,11.05-11.84,17.36-4.74,6.31-10.1,12.58-16.1,18.78-6,6.21-12.42,12.21-19.25,17.99-6.84,5.79-13.94,10.94-21.31,15.47-7.37,4.53-14.79,8.1-22.25,10.73-7.47,2.63-14.79,3.95-21.94,3.95-8.84,0-15.68-2.26-20.52-6.79-4.84-4.52-7.26-10.99-7.26-19.41,0-9.26,2.79-18.99,8.36-29.2,5.57-10.21,12.68-19.62,21.31-28.25s18.1-15.78,28.41-21.46c10.31-5.68,20.2-8.52,29.67-8.52,5.26,0,9.36,1.1,12.31,3.31,2.94,2.21,4.42,5.42,4.42,9.63,0,5.05-2.74,9.94-8.21,14.68-5.47,4.73-12.15,9.05-20.04,12.94-7.89,3.9-16.37,7.37-25.41,10.42-9.05,3.05-17.04,5.32-23.99,6.79-2.32,4.21-4.21,8.95-5.68,14.2-1.47,5.26-2.21,10.53-2.21,15.78,0,2.53.26,5,.79,7.42.52,2.42,1.37,4.63,2.53,6.63,1.15,2,2.73,3.63,4.74,4.89,2,1.26,4.47,1.89,7.42,1.89,6.94,0,15.1-2.26,24.46-6.79,9.36-4.52,18.88-10.57,28.57-18.15,9.68-7.58,18.94-16.2,27.78-25.88,8.84-9.68,16.41-19.67,22.73-29.99l2.53,1.58ZM858.51,233.21c0-2.94-.79-5.15-2.37-6.63-1.58-1.47-3.53-2.21-5.84-2.21-4.42,0-9.21,1.74-14.36,5.21-5.16,3.47-10.26,7.79-15.31,12.94-5.05,5.16-9.63,10.68-13.73,16.57-4.1,5.89-7.21,11.16-9.31,15.78,4.63-.84,10.42-2.47,17.36-4.89,6.94-2.42,13.62-5.42,20.04-9,6.42-3.58,11.94-7.73,16.57-12.47,4.63-4.73,6.94-9.83,6.94-15.31Z"/>
    </g>
  </g>
  <g>
    <path class="st3" d="M275.4,40.99v-7.49h7.49V11.03h-7.49V3.53h37.47v7.49h-7.49v22.48h7.49v7.49h-37.47ZM290.38,63.48h44.96v7.49h-52.45v-22.48h7.49v14.98h0ZM290.38,33.5h7.49V11.03h-7.49v22.48ZM335.34,48.49h-7.49v-14.98h-14.98v-7.49h14.98v-7.49h-14.98v-7.49h14.98V3.53h7.49v44.96h0Z"/>
    <path class="st3" d="M346.58,11.03V3.53h37.47v7.49h-14.98v22.48h-7.49V11.03h-14.99ZM346.58,63.48v-14.98h7.49v14.98h-7.49ZM354.07,33.5h7.49v14.98h-7.49v-14.98ZM369.06,33.5h7.49v14.98h-7.49v-14.98ZM376.55,63.48v-14.98h7.49v14.98h-7.49ZM406.52,70.97h-7.49V3.53h7.49v67.44Z"/>
    <path class="st3" d="M443.99,33.5V3.53h37.47v7.49h-29.97v14.98h29.97v7.49h-37.47ZM443.99,48.49v-7.49h44.96v7.49h-22.48v22.48h-7.49v-22.48h-14.99ZM503.93,70.97h-7.49V3.53h7.49v67.44Z"/>
    <path class="st3" d="M515.16,11.03V3.53h37.47v7.49h-14.98v14.98h-7.49v-14.98h-14.99ZM515.16,40.99v-7.49h7.49v7.49h-7.49ZM530.16,33.5h-7.49v-7.49h7.49v7.49ZM575.11,70.97h-7.49v-14.98h-44.96v-7.49h52.45v22.48h0ZM545.14,26.01v7.49h-7.49v-7.49h7.49ZM545.14,33.5h7.49v7.49h-7.49v-7.49ZM575.11,40.99h-7.49v-14.98h-14.98v-7.49h14.98V3.53h7.49v37.47h0Z"/>
    <path class="st3" d="M586.35,55.98V11.02h7.49v44.96h-7.49ZM593.84,11.03V3.53h22.48v7.49h-22.48ZM593.84,55.98h22.48v7.49h-22.48v-7.49ZM616.32,55.98V11.02h7.49v44.96h-7.49ZM646.29,70.97h-7.49V3.53h7.49v67.44Z"/>
    <path class="st3" d="M657.53,11.03V3.53h37.47v29.97h-7.49V11.03h-29.97ZM657.53,63.48v-7.49h14.98v7.49h-14.98ZM672.52,55.98v-7.49h7.49v7.49h-7.49ZM680.01,33.5h7.49v14.98h-7.49v-14.98ZM717.47,70.97h-7.49V3.53h7.49v67.44Z"/>
  </g>
</svg>